<svg width="273" height="298" viewBox="0 0 273 298" fill="none" xmlns="http://www.w3.org/2000/svg">
<path d="M228.539 111.771H62.5391C61.2135 111.769 59.9426 111.242 59.0052 110.305C58.0679 109.367 57.5406 108.097 57.5391 106.771V50.771C57.5406 49.4454 58.0679 48.1745 59.0052 47.2372C59.9426 46.2998 61.2135 45.7725 62.5391 45.771H228.539C229.865 45.7725 231.136 46.2998 232.073 47.2372C233.01 48.1745 233.538 49.4454 233.539 50.771V106.771C233.538 108.097 233.01 109.368 232.073 110.305C231.136 111.242 229.865 111.769 228.539 111.771V111.771Z" fill="#2F2F2F"/>
<path d="M127.539 60.7715H83.5391V65.7715H127.539V60.7715Z" fill="white"/>
<path d="M185.539 66.7715C187.196 66.7715 188.539 65.4283 188.539 63.7715C188.539 62.1146 187.196 60.7715 185.539 60.7715C183.882 60.7715 182.539 62.1146 182.539 63.7715C182.539 65.4283 183.882 66.7715 185.539 66.7715Z" fill="#2F2F2F"/>
<path d="M195.539 66.7715C197.196 66.7715 198.539 65.4283 198.539 63.7715C198.539 62.1146 197.196 60.7715 195.539 60.7715C193.882 60.7715 192.539 62.1146 192.539 63.7715C192.539 65.4283 193.882 66.7715 195.539 66.7715Z" fill="#2F2F2F"/>
<path d="M205.539 66.7715C207.196 66.7715 208.539 65.4283 208.539 63.7715C208.539 62.1146 207.196 60.7715 205.539 60.7715C203.882 60.7715 202.539 62.1146 202.539 63.7715C202.539 65.4283 203.882 66.7715 205.539 66.7715Z" fill="#2F2F2F"/>
<path d="M228.539 182.771H62.5391C61.2135 182.769 59.9426 182.242 59.0052 181.305C58.0679 180.367 57.5406 179.097 57.5391 177.771V121.771C57.5406 120.445 58.0679 119.175 59.0052 118.237C59.9426 117.3 61.2135 116.773 62.5391 116.771H228.539C229.865 116.773 231.136 117.3 232.073 118.237C233.01 119.175 233.538 120.445 233.539 121.771V177.771C233.538 179.097 233.01 180.368 232.073 181.305C231.136 182.242 229.865 182.769 228.539 182.771V182.771Z" fill="#2F2F2F"/>
<path d="M127.539 131.771H83.5391V136.771H127.539V131.771Z" fill="white"/>
<path d="M185.539 137.771C187.196 137.771 188.539 136.428 188.539 134.771C188.539 133.115 187.196 131.771 185.539 131.771C183.882 131.771 182.539 133.115 182.539 134.771C182.539 136.428 183.882 137.771 185.539 137.771Z" fill="#2F2F2F"/>
<path d="M195.539 137.771C197.196 137.771 198.539 136.428 198.539 134.771C198.539 133.115 197.196 131.771 195.539 131.771C193.882 131.771 192.539 133.115 192.539 134.771C192.539 136.428 193.882 137.771 195.539 137.771Z" fill="#2F2F2F"/>
<path d="M205.539 137.771C207.196 137.771 208.539 136.428 208.539 134.771C208.539 133.115 207.196 131.771 205.539 131.771C203.882 131.771 202.539 133.115 202.539 134.771C202.539 136.428 203.882 137.771 205.539 137.771Z" fill="#2F2F2F"/>
<path d="M228.539 253.771H62.5391C61.2135 253.769 59.9426 253.242 59.0052 252.305C58.0679 251.367 57.5406 250.097 57.5391 248.771V192.771C57.5406 191.445 58.0679 190.175 59.0052 189.237C59.9426 188.3 61.2135 187.773 62.5391 187.771H228.539C229.865 187.773 231.136 188.3 232.073 189.237C233.01 190.175 233.538 191.445 233.539 192.771V248.771C233.538 250.097 233.01 251.368 232.073 252.305C231.136 253.242 229.865 253.769 228.539 253.771V253.771Z" fill="#2F2F2F"/>
<path d="M127.539 202.771H83.5391V207.771H127.539V202.771Z" fill="white"/>
<path d="M185.539 208.771C187.196 208.771 188.539 207.428 188.539 205.771C188.539 204.115 187.196 202.771 185.539 202.771C183.882 202.771 182.539 204.115 182.539 205.771C182.539 207.428 183.882 208.771 185.539 208.771Z" fill="#2F2F2F"/>
<path d="M195.539 208.771C197.196 208.771 198.539 207.428 198.539 205.771C198.539 204.115 197.196 202.771 195.539 202.771C193.882 202.771 192.539 204.115 192.539 205.771C192.539 207.428 193.882 208.771 195.539 208.771Z" fill="#2F2F2F"/>
<path d="M205.539 208.771C207.196 208.771 208.539 207.428 208.539 205.771C208.539 204.115 207.196 202.771 205.539 202.771C203.882 202.771 202.539 204.115 202.539 205.771C202.539 207.428 203.882 208.771 205.539 208.771Z" fill="#2F2F2F"/>
<path d="M168 297.234H0V231H2V295.234H168V297.234Z" fill="#CCCCCC"/>
<path d="M105 0H273V66.234H271V2H105V0Z" fill="#CCCCCC"/>
</svg>
