<svg width="260" height="323" viewBox="0 0 260 323" fill="none" xmlns="http://www.w3.org/2000/svg">
<path d="M198.192 322.593H18.1948C13.3709 322.587 8.74614 320.668 5.33514 317.257C1.92414 313.846 0.00544891 309.222 0 304.398V66.0611C0.00544892 61.2372 1.92415 56.6124 5.33516 53.2014C8.74617 49.7904 13.3709 47.8717 18.1948 47.8662H198.192C203.016 47.8717 207.64 49.7904 211.052 53.2014C214.463 56.6124 216.381 61.2372 216.387 66.0611V304.398C216.381 309.222 214.463 313.846 211.052 317.257C207.64 320.668 203.016 322.587 198.192 322.593Z" fill="#2F2E41"/>
<path d="M129.493 307.84H30.8482C26.4558 307.835 22.2448 306.088 19.139 302.982C16.0332 299.876 14.2862 295.665 14.2812 291.273V79.186C14.2862 74.7937 16.0332 70.5828 19.1391 67.4769C22.2449 64.3711 26.4559 62.6241 30.8482 62.6191H185.54C189.933 62.6241 194.144 64.3711 197.249 67.4769C200.355 70.5828 202.102 74.7937 202.107 79.186V235.226C202.085 254.478 194.428 272.935 180.815 286.548C167.202 300.161 148.745 307.819 129.493 307.84Z" fill="white"/>
<path d="M170.109 103.336H46.2798C45.7495 103.337 45.2242 103.233 44.734 103.031C44.2438 102.828 43.7982 102.531 43.4227 102.157C43.0473 101.782 42.7492 101.338 42.5457 100.848C42.3421 100.358 42.237 99.8331 42.2363 99.3028C42.2357 98.7724 42.3395 98.2472 42.5418 97.7569C42.7441 97.2667 43.0411 96.8212 43.4156 96.4457C43.7901 96.0702 44.235 95.7722 44.7247 95.5686C45.2144 95.3651 45.7394 95.2599 46.2697 95.2593H170.109C171.18 95.2579 172.208 95.6821 172.966 96.4385C173.724 97.1949 174.151 98.2216 174.152 99.2927C174.154 100.364 173.729 101.391 172.973 102.15C172.217 102.908 171.19 103.335 170.119 103.336H170.109Z" fill="#2F2E41"/>
<path d="M170.106 119.293H46.277C45.2058 119.293 44.1786 118.868 43.4212 118.11C42.6638 117.353 42.2383 116.326 42.2383 115.254C42.2383 114.183 42.6638 113.156 43.4212 112.399C44.1786 111.641 45.2058 111.216 46.277 111.216H170.106C171.177 111.216 172.204 111.641 172.962 112.399C173.719 113.156 174.145 114.183 174.145 115.254C174.145 116.326 173.719 117.353 172.962 118.11C172.204 118.868 171.177 119.293 170.106 119.293Z" fill="#2F2E41"/>
<path d="M99.9538 135.252H46.277C45.2058 135.252 44.1786 134.826 43.4212 134.069C42.6638 133.311 42.2383 132.284 42.2383 131.213C42.2383 130.142 42.6638 129.115 43.4212 128.357C44.1786 127.6 45.2058 127.174 46.277 127.174H99.9538C101.025 127.174 102.052 127.6 102.81 128.357C103.567 129.115 103.993 130.142 103.993 131.213C103.993 132.284 103.567 133.311 102.81 134.069C102.052 134.826 101.025 135.252 99.9538 135.252Z" fill="#2F2E41"/>
<path d="M170.109 168.674H46.2798C45.2088 168.675 44.181 168.251 43.4227 167.495C42.6644 166.738 42.2377 165.712 42.2363 164.641C42.235 163.57 42.6592 162.542 43.4156 161.784C44.172 161.025 45.1987 160.599 46.2697 160.597H170.109C171.18 160.596 172.208 161.02 172.966 161.776C173.724 162.533 174.151 163.56 174.152 164.631C174.154 165.702 173.729 166.729 172.973 167.488C172.217 168.246 171.19 168.673 170.119 168.674H170.109Z" fill="#E4E4E4"/>
<path d="M170.106 184.632H46.277C45.2058 184.632 44.1786 184.207 43.4212 183.449C42.6638 182.692 42.2383 181.664 42.2383 180.593C42.2383 179.522 42.6638 178.495 43.4212 177.738C44.1786 176.98 45.2058 176.555 46.277 176.555H170.106C171.177 176.555 172.204 176.98 172.962 177.738C173.719 178.495 174.145 179.522 174.145 180.593C174.145 181.664 173.719 182.692 172.962 183.449C172.204 184.207 171.177 184.632 170.106 184.632Z" fill="#E4E4E4"/>
<path d="M99.9538 200.59H46.277C45.2058 200.59 44.1786 200.165 43.4212 199.407C42.6638 198.65 42.2383 197.622 42.2383 196.551C42.2383 195.48 42.6638 194.453 43.4212 193.696C44.1786 192.938 45.2058 192.513 46.277 192.513H99.9538C101.025 192.513 102.052 192.938 102.81 193.696C103.567 194.453 103.993 195.48 103.993 196.551C103.993 197.622 103.567 198.65 102.81 199.407C102.052 200.165 101.025 200.59 99.9538 200.59Z" fill="#E4E4E4"/>
<path d="M170.109 234.012H46.2798C45.2088 234.014 44.181 233.59 43.4227 232.833C42.6644 232.077 42.2377 231.05 42.2363 229.979C42.235 228.908 42.6592 227.88 43.4156 227.122C44.172 226.364 45.1987 225.937 46.2697 225.936H170.109C171.18 225.934 172.208 226.358 172.966 227.115C173.724 227.871 174.151 228.898 174.152 229.969C174.154 231.04 173.729 232.068 172.973 232.826C172.217 233.584 171.19 234.011 170.119 234.012H170.109Z" fill="#E4E4E4"/>
<path d="M170.106 249.97H46.277C45.2058 249.97 44.1786 249.545 43.4212 248.787C42.6638 248.03 42.2383 247.003 42.2383 245.932C42.2383 244.861 42.6638 243.833 43.4212 243.076C44.1786 242.319 45.2058 241.893 46.277 241.893H170.106C171.177 241.893 172.204 242.319 172.962 243.076C173.719 243.833 174.145 244.861 174.145 245.932C174.145 247.003 173.719 248.03 172.962 248.787C172.204 249.545 171.177 249.97 170.106 249.97Z" fill="#E4E4E4"/>
<path d="M99.9559 265.929H46.279C45.2092 265.927 44.184 265.5 43.4282 264.743C42.6725 263.986 42.248 262.96 42.248 261.89C42.248 260.82 42.6725 259.794 43.4282 259.037C44.184 258.28 45.2092 257.854 46.279 257.852H99.9559C101.026 257.854 102.051 258.28 102.807 259.037C103.562 259.794 103.987 260.82 103.987 261.89C103.987 262.96 103.562 263.986 102.807 264.743C102.051 265.5 101.026 265.927 99.9559 265.929Z" fill="#E4E4E4"/>
<path d="M207.498 105.004C236.494 105.004 260 81.4979 260 52.5019C260 23.5059 236.494 0 207.498 0C178.502 0 154.996 23.5059 154.996 52.5019C154.996 81.4979 178.502 105.004 207.498 105.004Z" fill="#2F2E41"/>
<path opacity="0.16" d="M207.498 97.7311C194.215 97.7293 181.427 92.6923 171.711 83.6353C161.995 74.5783 156.073 62.1747 155.14 48.9248C155.055 50.1471 154.996 51.3766 154.996 52.6205C155.001 66.5415 160.535 79.8905 170.381 89.7323C180.226 99.574 193.577 105.103 207.498 105.103C221.419 105.103 234.77 99.574 244.616 89.7323C254.461 79.8905 259.995 66.5415 260 52.6205C260 51.3766 259.941 50.1471 259.856 48.9248C258.923 62.1747 253.001 74.5783 243.285 83.6353C233.569 92.6923 220.781 97.7293 207.498 97.7311Z" fill="#231F20"/>
<path d="M207.499 78.1577C205.756 78.1557 204.085 77.4623 202.852 76.2297C201.619 74.997 200.926 73.3258 200.924 71.5825V33.538C200.923 32.674 201.092 31.8183 201.422 31.0197C201.752 30.2212 202.237 29.4956 202.847 28.8843C203.458 28.273 204.183 27.7881 204.981 27.4572C205.779 27.1264 206.635 26.9561 207.499 26.9561C208.363 26.9561 209.218 27.1264 210.017 27.4572C210.815 27.7881 211.54 28.273 212.151 28.8843C212.761 29.4956 213.245 30.2212 213.575 31.0197C213.905 31.8183 214.075 32.674 214.074 33.538V71.5825C214.072 73.3257 213.379 74.997 212.146 76.2296C210.913 77.4623 209.242 78.1557 207.499 78.1577Z" fill="white"/>
<path d="M181.902 52.5605C181.904 50.8173 182.598 49.1461 183.83 47.9134C185.063 46.6808 186.734 45.9874 188.478 45.9854H226.522C227.386 45.9844 228.242 46.1538 229.04 46.4838C229.839 46.8138 230.564 47.298 231.176 47.9087C231.787 48.5193 232.272 49.2444 232.603 50.0426C232.934 50.8407 233.104 51.6963 233.104 52.5603C233.104 53.4244 232.934 54.2799 232.603 55.0781C232.272 55.8763 231.787 56.6014 231.176 57.212C230.564 57.8227 229.839 58.3068 229.04 58.6368C228.242 58.9669 227.386 59.1363 226.522 59.1353H188.478C186.734 59.1334 185.063 58.4401 183.83 57.2075C182.598 55.9749 181.904 54.3037 181.902 52.5605Z" fill="white"/>
</svg>
