<svg width="500" height="472" viewBox="0 0 500 472" fill="none" xmlns="http://www.w3.org/2000/svg">
<path d="M312.672 452.895L374.605 391.151L312.672 329.407L331.554 310.588L412.369 391.151L331.554 471.714L312.672 452.895Z" fill="#E6E6E6"/>
<path d="M160.987 366.381H135.811V391.557H160.987V366.381Z" fill="#E6E6E6"/>
<path d="M262.194 366.381H237.018V391.557H262.194V366.381Z" fill="#E6E6E6"/>
<path d="M211.59 366.381H186.414V391.557H211.59V366.381Z" fill="#E6E6E6"/>
<path d="M101.697 452.266L39.701 390.522L101.634 328.778L82.752 309.959L2 390.522L82.815 471.085L101.697 452.266Z" fill="#E6E6E6"/>
<path d="M312.672 440.937L374.605 379.193L312.672 317.448L331.554 298.629L412.369 379.193L331.554 459.756L312.672 440.937Z" fill="#2F2F2F"/>
<path d="M135.811 383.598H160.987V358.422H135.811L135.811 383.598ZM262.194 358.422H237.018V383.598H262.194V358.422ZM186.414 383.598H211.59V358.422H186.414V383.598Z" fill="#2F2F2F"/>
<path d="M101.697 440.307L39.701 378.563L101.634 316.819L82.752 298L2 378.563L82.815 459.126L101.697 440.307Z" fill="#2F2F2F"/>
<path d="M7.53233 333.133C1.06375 313.239 0.534221 290.632 11.4662 272.175C16.1134 264.329 22.645 257.554 30.656 253.125C39.8966 248.017 50.5636 246.346 60.9992 246.116C83.6907 245.615 106.228 251.096 128.921 248.262C139.103 246.991 149.259 244.139 157.987 238.608C165.533 233.826 172.083 227.134 175.948 219.019C179.714 211.273 180.566 202.432 178.349 194.11C176.204 186.239 171.156 178.88 163.774 175.112C157.068 171.688 148.835 171.598 141.905 174.429C134.449 177.476 129.082 183.777 127.94 191.841C126.515 201.902 131.045 211.856 136.088 220.277C140.941 228.382 146.826 235.99 153.976 242.204C160.901 248.222 169.068 252.967 178.05 255.075C186.572 257.075 195.763 256.898 204.047 253.944C212.594 250.887 219.718 244.794 224.062 236.824C228.911 228.053 230.604 217.92 230.438 207.991C230.241 196.266 227.766 184.658 225.557 173.184C223.317 161.548 220.909 149.945 218.335 138.376C217.08 132.736 215.785 127.106 214.451 121.485C214.173 120.311 212.365 120.808 212.643 121.983C217.948 144.357 222.908 166.908 226.671 189.598C228.458 200.368 229.576 211.539 227.337 222.332C225.448 231.432 221.209 240.255 213.959 246.276C200.124 257.766 179.488 256.311 164.68 247.641C156.695 242.964 149.92 236.415 144.312 229.097C138.514 221.532 133.113 212.88 130.666 203.593C129.402 198.798 129.043 193.68 130.502 188.884C131.629 185.195 133.839 181.93 136.845 179.514C142.475 174.946 150.436 173.306 157.473 174.845C165.401 176.579 171.534 182.546 174.826 189.803C178.243 197.471 178.642 206.146 175.942 214.095C173.104 222.485 167.217 229.656 160.139 234.871C152.083 240.808 142.481 244.175 132.677 245.834C110.679 249.557 88.5825 244.689 66.5441 244.242C56.5011 244.038 46.2071 244.811 36.7151 248.321C28.2591 251.471 20.7909 256.81 15.0738 263.791C2.53242 279.005 -0.939285 299.194 2.0294 318.333C2.84969 323.524 4.08531 328.639 5.72434 333.632C6.09587 334.774 7.90698 334.285 7.53235 333.133L7.53233 333.133Z" fill="#E5E5E5"/>
<path d="M11.875 328.609H0V337.984H11.875V328.609Z" fill="#2F2F2F"/>
<path d="M213.67 121.714H425.475C465.598 121.714 498.124 98.8451 498.124 58.7216V58.7215C498.124 18.598 465.598 1.87451 425.475 1.87451H358.97C278.723 1.87451 213.67 41.4671 213.67 121.714V121.714Z" fill="white"/>
<path d="M425.475 123.589H211.795V121.714C211.795 83.3199 226.768 51.6775 255.095 30.2078C281.169 10.4458 317.088 0 358.97 0H425.475C446.957 0 465.093 4.74273 477.92 13.7158C492.571 23.9636 499.999 39.1058 499.999 58.7219C499.999 78.3883 492.403 94.9847 478.032 106.717C464.703 117.597 446.038 123.589 425.475 123.589ZM215.557 119.839H425.475C467.807 119.839 496.249 95.2782 496.249 58.7219C496.249 9.10644 446.754 3.75 425.475 3.75H358.97C290.133 3.75 216.612 34.2901 215.556 119.839H215.557Z" fill="#E5E5E5"/>
<path d="M335.666 39.3257H310.648V45.3483H335.666V39.3257Z" fill="#2F2F2F"/>
<path d="M422.3 39.3257H413.498V45.3483H422.3V39.3257Z" fill="#2F2F2F"/>
<path d="M439.904 39.3257H431.102V45.3483H439.904V39.3257Z" fill="#2F2F2F"/>
<path d="M404.232 39.3257H344.469V45.3483H404.232V39.3257Z" fill="#2F2F2F"/>
<path d="M304.164 78.2412H279.146V84.2639H304.164V78.2412Z" fill="#2F2F2F"/>
<path d="M390.796 78.2412H381.994V84.2639H390.796V78.2412Z" fill="#2F2F2F"/>
<path d="M408.402 78.2412H399.6V84.2639H408.402V78.2412Z" fill="#2F2F2F"/>
<path d="M372.73 78.2412H312.967V84.2639H372.73V78.2412Z" fill="#2F2F2F"/>
<path d="M407.476 52.7607H382.459V58.7834H407.476V52.7607Z" fill="#2F2F2F"/>
<path d="M441.295 52.7607H416.277V58.7834H441.295V52.7607Z" fill="#2F2F2F"/>
<path d="M458.9 52.7607H450.098V58.7834H458.9V52.7607Z" fill="#2F2F2F"/>
<path d="M305.554 52.7607H296.752V58.7834H305.554V52.7607Z" fill="#2F2F2F"/>
<path d="M374.119 52.7607H314.355V58.7834H374.119V52.7607Z" fill="#2F2F2F"/>
<path d="M355.587 65.7329H330.57V71.7556H355.587V65.7329Z" fill="#2F2F2F"/>
<path d="M321.769 65.7329H296.752V71.7556H321.769V65.7329Z" fill="#2F2F2F"/>
<path d="M458.9 65.7329H450.098V71.7556H458.9V65.7329Z" fill="#2F2F2F"/>
<path d="M441.295 65.7329H432.492V71.7556H441.295V65.7329Z" fill="#2F2F2F"/>
<path d="M423.689 65.7329H363.926V71.7556H423.689V65.7329Z" fill="#2F2F2F"/>
</svg>
