<svg width="360" height="191" viewBox="0 0 360 191" fill="none" xmlns="http://www.w3.org/2000/svg">
<path d="M344.799 191H15.2007C11.1706 190.995 7.30687 189.392 4.45717 186.543C1.60747 183.693 0.00452601 179.829 0 175.799V15.2007C0.00452071 11.1706 1.60747 7.30686 4.45717 4.45715C7.30687 1.60745 11.1706 0.00452602 15.2007 0H344.799C348.829 0.00454714 352.693 1.60749 355.543 4.45718C358.392 7.30688 359.995 11.1706 360 15.2007V175.799C359.995 179.829 358.392 183.693 355.543 186.543C352.693 189.392 348.829 190.995 344.799 191V191Z" fill="#CACACA"/>
<path d="M310.77 102.5H42.5909C40.852 102.498 39.1563 101.958 37.7352 100.956C36.3141 99.9542 35.2369 98.538 34.6507 96.9009L4.29784 11.7441C3.84483 10.4731 3.70357 9.11187 3.88593 7.77487C4.06829 6.43788 4.56895 5.16419 5.34582 4.06088C6.12269 2.95758 7.15307 2.0569 8.35035 1.43454C9.54763 0.812181 10.8768 0.486314 12.2262 0.484375L347.455 0.0166016H347.467C348.862 0.0166316 350.235 0.362847 351.463 1.02417C352.691 1.68549 353.736 2.64125 354.504 3.80579C355.272 4.97032 355.739 6.30723 355.863 7.69662C355.987 9.08602 355.764 10.4845 355.214 11.7666L354.755 11.5698L355.214 11.7666L318.518 97.3911C317.869 98.9082 316.789 100.201 315.412 101.109C314.034 102.018 312.42 102.501 310.77 102.5V102.5Z" fill="#E4E4E4"/>
<path d="M118.62 168.328H26.144C23.8655 168.328 21.6802 167.422 20.0691 165.811C18.4579 164.2 17.5527 162.015 17.5527 159.736C17.5527 157.458 18.4579 155.273 20.0691 153.661C21.6802 152.05 23.8655 151.145 26.144 151.145H118.62C120.898 151.145 123.084 152.05 124.695 153.661C126.306 155.273 127.211 157.458 127.211 159.736C127.211 162.015 126.306 164.2 124.695 165.811C123.084 167.422 120.898 168.328 118.62 168.328V168.328Z" fill="#F2F2F2"/>
<path d="M179.498 123.5C191.096 123.5 200.498 114.098 200.498 102.5C200.498 90.902 191.096 81.5 179.498 81.5C167.9 81.5 158.498 90.902 158.498 102.5C158.498 114.098 167.9 123.5 179.498 123.5Z" fill="#3F3D56"/>
<path d="M174.363 85.2008C156.403 85.2008 141.791 69.6792 141.791 50.6001C141.791 31.5215 156.403 16 174.363 16C192.323 16 206.935 31.5215 206.935 50.6001C206.935 69.6792 192.323 85.2008 174.363 85.2008ZM174.363 24.7426C161.223 24.7426 150.534 36.3421 150.534 50.6001C150.534 64.8581 161.223 76.4582 174.363 76.4582C187.502 76.4582 198.192 64.8581 198.192 50.6001C198.192 36.3421 187.502 24.7426 174.363 24.7426Z" fill="#2F2F2F"/>
<path d="M205.207 145.5H143.519C138.079 145.494 132.863 143.33 129.017 139.483C125.17 135.637 123.006 130.421 123 124.982V64.4716C123.004 60.7472 124.486 57.1766 127.119 54.543C129.753 51.9095 133.323 50.4281 137.047 50.4238H211.678C215.403 50.4281 218.973 51.9095 221.607 54.543C224.24 57.1766 225.722 60.7472 225.726 64.4716V124.982C225.72 130.421 223.556 135.637 219.709 139.483C215.863 143.33 210.647 145.494 205.207 145.5V145.5Z" fill="#2F2F2F"/>
<path d="M186.384 84.8481C186.386 82.7112 185.818 80.6125 184.738 78.7681C183.659 76.9238 182.108 75.4004 180.244 74.3549C178.381 73.3094 176.272 72.7796 174.135 72.82C171.999 72.8605 169.912 73.4697 168.089 74.5849C166.266 75.7002 164.774 77.2812 163.765 79.1651C162.756 81.049 162.268 83.1677 162.351 85.303C162.433 87.4383 163.083 89.513 164.234 91.3135C165.385 93.114 166.995 94.5751 168.899 95.5464V114.354H179.827V95.5464C181.8 94.5409 183.456 93.0096 184.614 91.1216C185.771 89.2336 186.383 87.0625 186.384 84.8481V84.8481Z" fill="white"/>
</svg>
