<svg width="282" height="150" viewBox="0 0 282 150" fill="none" xmlns="http://www.w3.org/2000/svg">
<path d="M29.8338 0C21.9213 0 14.333 3.19985 8.7381 8.89563C3.14319 14.5914 0 22.3165 0 30.3716C0 38.4267 3.14319 46.1518 8.7381 51.8476C14.333 57.5434 21.9213 60.7432 29.8338 60.7432H252.166C260.079 60.7432 267.667 57.5434 273.262 51.8476C278.857 46.1518 282 38.4267 282 30.3716C282 22.3165 278.857 14.5914 273.262 8.89563C267.667 3.19985 260.079 0 252.166 0H29.8338Z" fill="#E5E5E5"/>
<path d="M29.8331 6.14795C23.522 6.14795 17.4694 8.70022 13.0068 13.2433C8.54417 17.7863 6.03711 23.9481 6.03711 30.3729C6.03711 36.7978 8.54417 42.9595 13.0068 47.5026C17.4694 52.0456 23.522 54.5979 29.8331 54.5979H252.166C258.477 54.5979 264.529 52.0456 268.992 47.5026C273.454 42.9595 275.962 36.7978 275.962 30.3729C275.962 23.9481 273.454 17.7863 268.992 13.2433C264.529 8.70022 258.477 6.14795 252.166 6.14795H29.8331Z" fill="white"/>
<path d="M78.9434 44.8569H34.7075C34.567 44.8579 34.4277 44.8306 34.2975 44.7765C34.1674 44.7224 34.0491 44.6427 33.9494 44.5418C33.8497 44.441 33.7706 44.3211 33.7166 44.189C33.6626 44.057 33.6348 43.9153 33.6348 43.7722C33.6348 43.6291 33.6626 43.4875 33.7166 43.3554C33.7706 43.2233 33.8497 43.1034 33.9494 43.0026C34.0491 42.9018 34.1674 42.822 34.2975 42.768C34.4277 42.7139 34.567 42.6866 34.7075 42.6875H78.9434C79.2248 42.6895 79.4939 42.8046 79.6922 43.0078C79.8904 43.211 80.0017 43.4858 80.0017 43.7722C80.0017 44.0586 79.8904 44.3334 79.6922 44.5366C79.4939 44.7398 79.2248 44.855 78.9434 44.8569Z" fill="#2F2E41"/>
<path d="M135.061 45.2183H90.8247C90.6842 45.2192 90.5448 45.1919 90.4147 45.1378C90.2846 45.0838 90.1663 45.004 90.0666 44.9032C89.9669 44.8024 89.8877 44.6825 89.8337 44.5504C89.7797 44.4183 89.752 44.2766 89.752 44.1336C89.752 43.9905 89.7797 43.8488 89.8337 43.7167C89.8877 43.5847 89.9669 43.4648 90.0666 43.3639C90.1663 43.2631 90.2846 43.1834 90.4147 43.1293C90.5448 43.0752 90.6842 43.0479 90.8247 43.0489H135.061C135.201 43.0479 135.341 43.0752 135.471 43.1293C135.601 43.1834 135.719 43.2631 135.819 43.3639C135.918 43.4648 135.998 43.5847 136.052 43.7167C136.106 43.8488 136.133 43.9905 136.133 44.1336C136.133 44.2766 136.106 44.4183 136.052 44.5504C135.998 44.6825 135.918 44.8024 135.819 44.9032C135.719 45.004 135.601 45.0838 135.471 45.1378C135.341 45.1919 135.201 45.2192 135.061 45.2183Z" fill="#2F2E41"/>
<path d="M191.175 45.5801H146.939C146.658 45.5781 146.389 45.463 146.19 45.2598C145.992 45.0566 145.881 44.7818 145.881 44.4954C145.881 44.209 145.992 43.9342 146.19 43.731C146.389 43.5277 146.658 43.4126 146.939 43.4107H191.175C191.316 43.4097 191.455 43.437 191.585 43.4911C191.715 43.5452 191.833 43.6249 191.933 43.7257C192.033 43.8266 192.112 43.9465 192.166 44.0786C192.22 44.2106 192.248 44.3523 192.248 44.4954C192.248 44.6384 192.22 44.7801 192.166 44.9122C192.112 45.0443 192.033 45.1642 191.933 45.265C191.833 45.3658 191.715 45.4456 191.585 45.4996C191.455 45.5537 191.316 45.581 191.175 45.5801H191.175Z" fill="#2F2E41"/>
<path d="M247.29 45.9419H203.054C202.773 45.9399 202.504 45.8248 202.306 45.6216C202.107 45.4183 201.996 45.1436 201.996 44.8572C201.996 44.5707 202.107 44.296 202.306 44.0927C202.504 43.8895 202.773 43.7744 203.054 43.7725H247.29C247.572 43.7744 247.841 43.8895 248.039 44.0927C248.237 44.296 248.349 44.5707 248.349 44.8572C248.349 45.1436 248.237 45.4183 248.039 45.6216C247.841 45.8248 247.572 45.9399 247.29 45.9419Z" fill="#2F2E41"/>
<path d="M56.7294 34.8744C61.27 34.8744 64.951 31.1271 64.951 26.5046C64.951 21.8821 61.27 18.1348 56.7294 18.1348C52.1887 18.1348 48.5078 21.8821 48.5078 26.5046C48.5078 31.1271 52.1887 34.8744 56.7294 34.8744Z" fill="#2F2E41"/>
<path d="M113.184 34.8744C117.725 34.8744 121.406 31.1271 121.406 26.5046C121.406 21.8821 117.725 18.1348 113.184 18.1348C108.644 18.1348 104.963 21.8821 104.963 26.5046C104.963 31.1271 108.644 34.8744 113.184 34.8744Z" fill="#2F2E41"/>
<path d="M169.638 34.8744C174.178 34.8744 177.859 31.1271 177.859 26.5046C177.859 21.8821 174.178 18.1348 169.638 18.1348C165.097 18.1348 161.416 21.8821 161.416 26.5046C161.416 31.1271 165.097 34.8744 169.638 34.8744Z" fill="#2F2E41"/>
<path d="M226.093 34.8744C230.633 34.8744 234.314 31.1271 234.314 26.5046C234.314 21.8821 230.633 18.1348 226.093 18.1348C221.552 18.1348 217.871 21.8821 217.871 26.5046C217.871 31.1271 221.552 34.8744 226.093 34.8744Z" fill="#2F2E41"/>
<path d="M141.142 150C166.946 150 187.864 128.705 187.864 102.435C187.864 76.1664 166.946 54.8711 141.142 54.8711C115.338 54.8711 94.4199 76.1664 94.4199 102.435C94.4199 128.705 115.338 150 141.142 150Z" fill="#2F2E41"/>
<path d="M129.32 133.467C132.156 123.051 134.992 112.636 137.829 102.22C138.433 100.003 138.9 97.5401 140.282 95.6583C141.35 94.2034 143.031 93.2516 144.81 93.8499C149.051 95.2763 148.982 101.506 148.907 105.141C148.793 110.627 147.576 116.101 145.337 121.095C145.03 121.78 145.145 122.597 145.829 123.004C146.418 123.355 147.395 123.192 147.703 122.504C149.946 117.503 151.279 112.15 151.589 106.658C151.856 101.919 151.876 95.6693 147.842 92.4394C145.87 90.8607 143.353 90.3918 141.04 91.4829C138.756 92.5611 137.361 94.7937 136.483 97.1052C135.508 99.6756 134.927 102.432 134.204 105.084L131.877 113.63C130.144 119.995 128.411 126.36 126.677 132.725C126.205 134.458 128.849 135.198 129.32 133.467V133.467H129.32Z" fill="white"/>
<path d="M141.472 118.961C143.227 112.255 144.124 105.32 144.131 98.3797C144.133 96.5845 141.393 96.5817 141.391 98.3797C141.384 105.085 140.525 111.74 138.83 118.22C138.375 119.956 141.018 120.697 141.472 118.961H141.472Z" fill="white"/>
<path d="M113.299 118.882C115.136 109.866 117.124 100.822 119.673 91.9843C121.74 84.8179 125.304 76.6969 132.827 74.0986C136.562 72.8082 140.612 73.016 144.435 73.7648C148.227 74.5073 152.068 75.6124 155.562 77.3026C158.87 78.9026 161.931 81.108 164.108 84.146C166.258 87.1449 167.597 90.6253 168.318 94.2495C169.993 102.66 168.022 111.252 165.814 119.358C165.52 120.437 165.219 121.514 164.919 122.591C164.436 124.321 167.079 125.06 167.561 123.333C170.002 114.593 172.537 105.463 171.4 96.2911C170.908 92.3242 169.815 88.4273 167.867 84.936C165.871 81.3584 162.991 78.434 159.539 76.3084C156.057 74.1647 152.137 72.8 148.212 71.7758C144.043 70.6879 139.704 70.0183 135.41 70.6262C131.361 71.1995 127.713 73.1538 124.846 76.1045C121.909 79.1274 119.922 82.9047 118.457 86.8524C116.84 91.2062 115.785 95.7799 114.673 100.287C113.497 105.051 112.401 109.835 111.384 114.637C111.137 115.804 110.895 116.971 110.657 118.14C110.506 118.877 110.868 119.647 111.614 119.856C112.293 120.046 113.148 119.623 113.299 118.882H113.299Z" fill="white"/>
<path d="M127.423 90.0408C129.56 83.439 136.442 79.3519 143.105 79.8048C150.491 80.3069 156.892 85.7979 159.485 92.7076C161.026 96.8135 161.478 101.332 160.831 105.677C160.72 106.421 161.015 107.177 161.788 107.393C162.435 107.574 163.361 107.168 163.473 106.419C164.768 97.7349 162.389 88.273 155.676 82.401C152.528 79.6475 148.673 77.7417 144.545 77.171C140.576 76.6223 136.575 77.3701 133.061 79.3371C129.207 81.4947 126.162 85.0315 124.781 89.2991C124.227 91.0083 126.873 91.7409 127.423 90.0408L127.423 90.0408V90.0408Z" fill="white"/>
<path d="M121.593 102.836C121.005 109.993 119.233 117.07 116.366 123.634C116.066 124.322 116.17 125.133 116.858 125.543C117.442 125.89 118.43 125.734 118.733 125.042C121.809 117.997 123.702 110.521 124.334 102.836C124.396 102.085 123.66 101.441 122.964 101.441C122.171 101.441 121.655 102.082 121.593 102.836H121.593Z" fill="white"/>
<path d="M154.695 110.825C154.106 117.982 152.334 125.059 149.468 131.623C149.167 132.311 149.271 133.122 149.959 133.531C150.543 133.879 151.532 133.723 151.834 133.031C154.911 125.986 156.803 118.51 157.435 110.825C157.497 110.073 156.761 109.43 156.065 109.43C155.272 109.43 154.757 110.071 154.695 110.825L154.695 110.825Z" fill="white"/>
<path d="M128.487 105.273C130.249 98.1596 133.169 91.418 137.13 85.2894C138.102 83.7852 135.73 82.386 134.764 83.8813C130.684 90.1938 127.659 97.2048 125.844 104.532C125.413 106.273 128.055 107.016 128.487 105.273V105.273H128.487Z" fill="white"/>
</svg>
