<svg width="48" height="48" viewBox="0 0 48 48" fill="none" xmlns="http://www.w3.org/2000/svg">
<path d="M40.5992 44.5496L32.1992 36.2496C31.1659 36.7163 29.9326 37.0829 28.4992 37.3496C27.0659 37.6163 25.5659 37.7496 23.9992 37.7496C19.1992 37.7496 14.8242 36.4163 10.8742 33.7496C6.92422 31.0829 4.03255 27.4996 2.19922 22.9996C2.86589 21.2329 3.80755 19.5329 5.02422 17.8996C6.24089 16.2663 7.68255 14.7496 9.34922 13.3496L3.14922 7.19961L5.19922 5.09961L42.5492 42.3996L40.5992 44.5496ZM23.9992 31.3996C24.4992 31.3996 25.0326 31.3413 25.5992 31.2246C26.1659 31.1079 26.5826 30.9663 26.8492 30.7996L16.1992 20.1496C16.0326 20.5163 15.8909 20.9663 15.7742 21.4996C15.6576 22.0329 15.5992 22.5329 15.5992 22.9996C15.5992 25.3663 16.4159 27.3579 18.0492 28.9746C19.6826 30.5913 21.6659 31.3996 23.9992 31.3996ZM37.9992 33.1496L31.5492 26.7496C31.8159 26.2496 32.0242 25.6746 32.1742 25.0246C32.3242 24.3746 32.3992 23.6996 32.3992 22.9996C32.3992 20.6663 31.5826 18.6829 29.9492 17.0496C28.3159 15.4163 26.3326 14.5996 23.9992 14.5996C23.2992 14.5996 22.6159 14.6829 21.9492 14.8496C21.2826 15.0163 20.7326 15.2329 20.2992 15.4996L14.8992 10.0496C16.0326 9.54961 17.4492 9.12461 19.1492 8.77461C20.8492 8.42461 22.5326 8.24961 24.1992 8.24961C28.8659 8.24961 33.1742 9.58294 37.1242 12.2496C41.0742 14.9163 43.9659 18.4996 45.7992 22.9996C44.9992 25.0329 43.9409 26.8996 42.6242 28.5996C41.3076 30.2996 39.7659 31.8163 37.9992 33.1496ZM29.3492 24.5496L22.4492 17.6496C23.3492 17.3829 24.2826 17.3579 25.2492 17.5746C26.2159 17.7913 27.0659 18.2163 27.7992 18.8496C28.5326 19.5829 29.0576 20.4079 29.3742 21.3246C29.6909 22.2413 29.6826 23.3163 29.3492 24.5496V24.5496Z" fill="#C4C4C4"/>
</svg>
