<svg width="28" height="28" viewBox="0 0 28 28" fill="none" xmlns="http://www.w3.org/2000/svg">
<path d="M15.125 9.625H12.375V6.875H15.125M15.125 20.625H12.375V12.375H15.125M13.75 0C11.9443 0 10.1563 0.355654 8.4881 1.04666C6.81988 1.73766 5.30409 2.75048 4.02728 4.02728C1.44866 6.60591 0 10.1033 0 13.75C0 17.3967 1.44866 20.8941 4.02728 23.4727C5.30409 24.7495 6.81988 25.7623 8.4881 26.4533C10.1563 27.1443 11.9443 27.5 13.75 27.5C17.3967 27.5 20.8941 26.0513 23.4727 23.4727C26.0513 20.8941 27.5 17.3967 27.5 13.75C27.5 11.9443 27.1443 10.1563 26.4533 8.4881C25.7623 6.81988 24.7495 5.30409 23.4727 4.02728C22.1959 2.75048 20.6801 1.73766 19.0119 1.04666C17.3437 0.355654 15.5557 0 13.75 0Z" fill="#FF5722"/>
</svg>
