<svg width="48" height="48" viewBox="0 0 48 48" fill="none" xmlns="http://www.w3.org/2000/svg">
<path d="M9.85078 42.5C8.88411 42.5 8.05078 42.15 7.35078 41.45C6.65078 40.75 6.30078 39.9167 6.30078 38.95V10.05C6.30078 9.08333 6.65078 8.25 7.35078 7.55C8.05078 6.85 8.88411 6.5 9.85078 6.5H23.8008V9.4H9.85078C9.68411 9.4 9.53411 9.46667 9.40078 9.6C9.26745 9.73333 9.20078 9.88333 9.20078 10.05V38.95C9.20078 39.1167 9.26745 39.2667 9.40078 39.4C9.53411 39.5333 9.68411 39.6 9.85078 39.6H23.8008V42.5H9.85078ZM33.1508 33.1L30.9508 31L36.0508 25.95H18.6008V23H36.0008L30.9008 17.95L33.1008 15.85L41.7508 24.55L33.1508 33.1Z" fill="#FF5722"/>
</svg>
