<svg width="196" height="197" viewBox="0 0 196 197" fill="none" xmlns="http://www.w3.org/2000/svg">
<path d="M96.8638 76.215C89.4997 76.215 83.5303 81.2689 83.5303 87.5029C83.5303 90.491 84.9041 93.2058 87.1431 95.2252L90.5841 97.9898L87.1431 117.157V118.017C87.1431 118.978 88.0722 119.765 89.2077 119.765H104.176C105.311 119.765 106.24 118.978 106.24 118.017V116.997L103.126 97.9898L106.24 95.5265C108.683 93.4804 110.197 90.6417 110.197 87.5029C110.197 81.2689 104.228 76.215 96.8638 76.215" fill="#FF5722"/>
<path d="M103.538 28.7076H92.8011C83.1207 28.7076 75.2451 35.8708 75.2451 44.6758V62.2275H121.094V44.6758C121.094 35.8708 113.218 28.7076 103.538 28.7076" fill="#FF5722"/>
<path d="M137.634 119.632C137.634 127.834 130.256 134.545 121.239 134.545H71.9074C62.89 134.545 55.5123 127.834 55.5123 119.632V77.1387C55.5123 70.6453 60.1382 65.0904 66.539 63.0563V44.6743C66.539 31.5035 78.3201 20.7881 92.8006 20.7881H103.537C118.018 20.7881 129.799 31.5035 129.799 44.6743V64.4371C134.49 67.0687 137.634 71.7852 137.634 77.1387V119.632ZM97.9992 0.000311989C53.716 0.000311989 17.8174 35.0493 17.8174 78.2843C17.8174 121.519 53.716 156.568 97.9992 156.568C142.282 156.568 178.181 121.519 178.181 78.2843C178.181 35.0493 142.282 0.000311989 97.9992 0.000311989Z" fill="#FF5722"/>
<path d="M14.9432 171.125C14.8371 170.133 14.3902 169.36 13.6023 168.807C12.822 168.254 11.8068 167.977 10.5568 167.977C9.67803 167.977 8.92424 168.11 8.29545 168.375C7.66667 168.64 7.18561 169 6.85227 169.455C6.51894 169.909 6.34849 170.428 6.34091 171.011C6.34091 171.496 6.45076 171.917 6.67045 172.273C6.89773 172.629 7.20455 172.932 7.59091 173.182C7.97727 173.424 8.4053 173.629 8.875 173.795C9.3447 173.962 9.81818 174.102 10.2955 174.216L12.4773 174.761C13.3561 174.966 14.2008 175.242 15.0114 175.591C15.8295 175.939 16.5606 176.379 17.2045 176.909C17.8561 177.439 18.3712 178.08 18.75 178.83C19.1288 179.58 19.3182 180.458 19.3182 181.466C19.3182 182.83 18.9697 184.03 18.2727 185.068C17.5758 186.098 16.5682 186.905 15.25 187.489C13.9394 188.064 12.3523 188.352 10.4886 188.352C8.67803 188.352 7.10606 188.072 5.77273 187.511C4.44697 186.951 3.40909 186.133 2.65909 185.057C1.91667 183.981 1.51515 182.67 1.45455 181.125H5.60227C5.66288 181.936 5.91288 182.61 6.35227 183.148C6.79167 183.686 7.36364 184.087 8.06818 184.352C8.7803 184.617 9.57576 184.75 10.4545 184.75C11.3712 184.75 12.1742 184.614 12.8636 184.341C13.5606 184.061 14.1061 183.674 14.5 183.182C14.8939 182.682 15.0947 182.098 15.1023 181.432C15.0947 180.826 14.9167 180.326 14.5682 179.932C14.2197 179.53 13.7311 179.197 13.1023 178.932C12.4811 178.659 11.7538 178.417 10.9205 178.205L8.27273 177.523C6.35606 177.03 4.84091 176.284 3.72727 175.284C2.62121 174.277 2.06818 172.939 2.06818 171.273C2.06818 169.902 2.43939 168.701 3.18182 167.67C3.93182 166.64 4.95076 165.841 6.23864 165.273C7.52652 164.697 8.98485 164.409 10.6136 164.409C12.2652 164.409 13.7121 164.697 14.9545 165.273C16.2045 165.841 17.1856 166.633 17.8977 167.648C18.6098 168.655 18.9773 169.814 19 171.125H14.9432ZM27.9176 188.352C26.8116 188.352 25.8153 188.155 24.929 187.761C24.0502 187.36 23.3532 186.769 22.8381 185.989C22.3305 185.208 22.0767 184.246 22.0767 183.102C22.0767 182.117 22.2585 181.303 22.6222 180.659C22.9858 180.015 23.482 179.5 24.1108 179.114C24.7396 178.727 25.4479 178.436 26.2358 178.239C27.0313 178.034 27.8532 177.886 28.7017 177.795C29.7244 177.689 30.554 177.595 31.1903 177.511C31.8267 177.42 32.2888 177.284 32.5767 177.102C32.8722 176.913 33.0199 176.621 33.0199 176.227V176.159C33.0199 175.303 32.7661 174.64 32.2585 174.17C31.7509 173.701 31.0199 173.466 30.0653 173.466C29.0578 173.466 28.2585 173.686 27.6676 174.125C27.0843 174.564 26.6903 175.083 26.4858 175.682L22.6449 175.136C22.9479 174.076 23.4479 173.189 24.1449 172.477C24.8419 171.758 25.6941 171.22 26.7017 170.864C27.7093 170.5 28.8229 170.318 30.0426 170.318C30.8835 170.318 31.7206 170.417 32.554 170.614C33.3873 170.811 34.1487 171.136 34.8381 171.591C35.5275 172.038 36.0805 172.648 36.4972 173.42C36.9214 174.193 37.1335 175.159 37.1335 176.318V188H33.179V185.602H33.0426C32.7926 186.087 32.4403 186.542 31.9858 186.966C31.5388 187.383 30.9744 187.72 30.2926 187.977C29.6184 188.227 28.8267 188.352 27.9176 188.352ZM28.9858 185.33C29.8116 185.33 30.5275 185.167 31.1335 184.841C31.7396 184.508 32.2055 184.068 32.5312 183.523C32.8646 182.977 33.0312 182.383 33.0312 181.739V179.682C32.9025 179.788 32.6828 179.886 32.3722 179.977C32.0691 180.068 31.7282 180.148 31.3494 180.216C30.9706 180.284 30.5956 180.345 30.2244 180.398C29.8532 180.451 29.5313 180.496 29.2585 180.534C28.6449 180.617 28.0956 180.754 27.6108 180.943C27.1259 181.133 26.7434 181.398 26.4631 181.739C26.1828 182.072 26.0426 182.504 26.0426 183.034C26.0426 183.792 26.3191 184.364 26.8722 184.75C27.4252 185.136 28.1297 185.33 28.9858 185.33ZM50.1108 170.545V173.727H39.7926V170.545H50.1108ZM42.3722 188V168.898C42.3722 167.723 42.6146 166.746 43.0994 165.966C43.5919 165.186 44.2509 164.602 45.0767 164.216C45.9025 163.83 46.8191 163.636 47.8267 163.636C48.5388 163.636 49.1714 163.693 49.7244 163.807C50.2775 163.92 50.6866 164.023 50.9517 164.114L50.1335 167.295C49.9593 167.242 49.7396 167.189 49.4744 167.136C49.2093 167.076 48.9138 167.045 48.5881 167.045C47.8229 167.045 47.2813 167.231 46.9631 167.602C46.6525 167.966 46.4972 168.489 46.4972 169.17V188H42.3722ZM60.4034 188.341C58.6534 188.341 57.142 187.977 55.8693 187.25C54.6042 186.515 53.6307 185.477 52.9489 184.136C52.267 182.788 51.9261 181.201 51.9261 179.375C51.9261 177.58 52.267 176.004 52.9489 174.648C53.6383 173.284 54.6004 172.223 55.8352 171.466C57.0701 170.701 58.5208 170.318 60.1875 170.318C61.2633 170.318 62.2784 170.492 63.233 170.841C64.1951 171.182 65.0436 171.712 65.7784 172.432C66.5208 173.152 67.1042 174.068 67.5284 175.182C67.9527 176.288 68.1648 177.606 68.1648 179.136V180.398H53.858V177.625H64.2216C64.214 176.837 64.0436 176.136 63.7102 175.523C63.3769 174.902 62.911 174.413 62.3125 174.057C61.7216 173.701 61.0322 173.523 60.2443 173.523C59.4034 173.523 58.6648 173.727 58.0284 174.136C57.392 174.538 56.8958 175.068 56.5398 175.727C56.1913 176.379 56.0133 177.095 56.0057 177.875V180.295C56.0057 181.311 56.1913 182.182 56.5625 182.909C56.9337 183.629 57.4527 184.182 58.1193 184.568C58.786 184.947 59.5663 185.136 60.4602 185.136C61.0587 185.136 61.6004 185.053 62.0852 184.886C62.5701 184.712 62.9905 184.458 63.3466 184.125C63.7027 183.792 63.9716 183.379 64.1534 182.886L67.9943 183.318C67.7519 184.333 67.2898 185.22 66.608 185.977C65.9337 186.727 65.0701 187.311 64.017 187.727C62.964 188.136 61.7595 188.341 60.4034 188.341ZM84.4744 171.125C84.3684 170.133 83.9214 169.36 83.1335 168.807C82.3532 168.254 81.3381 167.977 80.0881 167.977C79.2093 167.977 78.4555 168.11 77.8267 168.375C77.1979 168.64 76.7169 169 76.3835 169.455C76.0502 169.909 75.8797 170.428 75.8722 171.011C75.8722 171.496 75.982 171.917 76.2017 172.273C76.429 172.629 76.7358 172.932 77.1222 173.182C77.5085 173.424 77.9366 173.629 78.4062 173.795C78.8759 173.962 79.3494 174.102 79.8267 174.216L82.0085 174.761C82.8873 174.966 83.732 175.242 84.5426 175.591C85.3608 175.939 86.0919 176.379 86.7358 176.909C87.3873 177.439 87.9025 178.08 88.2812 178.83C88.66 179.58 88.8494 180.458 88.8494 181.466C88.8494 182.83 88.5009 184.03 87.804 185.068C87.107 186.098 86.0994 186.905 84.7812 187.489C83.4706 188.064 81.8835 188.352 80.0199 188.352C78.2093 188.352 76.6373 188.072 75.304 187.511C73.9782 186.951 72.9403 186.133 72.1903 185.057C71.4479 183.981 71.0464 182.67 70.9858 181.125H75.1335C75.1941 181.936 75.4441 182.61 75.8835 183.148C76.3229 183.686 76.8949 184.087 77.5994 184.352C78.3116 184.617 79.107 184.75 79.9858 184.75C80.9025 184.75 81.7055 184.614 82.3949 184.341C83.0919 184.061 83.6373 183.674 84.0312 183.182C84.4252 182.682 84.6259 182.098 84.6335 181.432C84.6259 180.826 84.4479 180.326 84.0994 179.932C83.7509 179.53 83.2623 179.197 82.6335 178.932C82.0123 178.659 81.285 178.417 80.4517 178.205L77.804 177.523C75.8873 177.03 74.3722 176.284 73.2585 175.284C72.1525 174.277 71.5994 172.939 71.5994 171.273C71.5994 169.902 71.9706 168.701 72.7131 167.67C73.4631 166.64 74.482 165.841 75.7699 165.273C77.0578 164.697 78.5161 164.409 80.1449 164.409C81.7964 164.409 83.2434 164.697 84.4858 165.273C85.7358 165.841 86.7169 166.633 87.429 167.648C88.1411 168.655 88.5085 169.814 88.5312 171.125H84.4744ZM100.153 188.341C98.4034 188.341 96.892 187.977 95.6193 187.25C94.3542 186.515 93.3807 185.477 92.6989 184.136C92.017 182.788 91.6761 181.201 91.6761 179.375C91.6761 177.58 92.017 176.004 92.6989 174.648C93.3883 173.284 94.3504 172.223 95.5852 171.466C96.8201 170.701 98.2708 170.318 99.9375 170.318C101.013 170.318 102.028 170.492 102.983 170.841C103.945 171.182 104.794 171.712 105.528 172.432C106.271 173.152 106.854 174.068 107.278 175.182C107.703 176.288 107.915 177.606 107.915 179.136V180.398H93.608V177.625H103.972C103.964 176.837 103.794 176.136 103.46 175.523C103.127 174.902 102.661 174.413 102.062 174.057C101.472 173.701 100.782 173.523 99.9943 173.523C99.1534 173.523 98.4148 173.727 97.7784 174.136C97.142 174.538 96.6458 175.068 96.2898 175.727C95.9413 176.379 95.7633 177.095 95.7557 177.875V180.295C95.7557 181.311 95.9413 182.182 96.3125 182.909C96.6837 183.629 97.2027 184.182 97.8693 184.568C98.536 184.947 99.3163 185.136 100.21 185.136C100.809 185.136 101.35 185.053 101.835 184.886C102.32 184.712 102.741 184.458 103.097 184.125C103.453 183.792 103.722 183.379 103.903 182.886L107.744 183.318C107.502 184.333 107.04 185.22 106.358 185.977C105.684 186.727 104.82 187.311 103.767 187.727C102.714 188.136 101.509 188.341 100.153 188.341ZM119.009 188.341C117.266 188.341 115.77 187.958 114.52 187.193C113.277 186.428 112.319 185.371 111.645 184.023C110.978 182.667 110.645 181.106 110.645 179.341C110.645 177.568 110.986 176.004 111.668 174.648C112.349 173.284 113.312 172.223 114.554 171.466C115.804 170.701 117.281 170.318 118.986 170.318C120.402 170.318 121.656 170.58 122.747 171.102C123.846 171.617 124.721 172.348 125.372 173.295C126.024 174.235 126.395 175.333 126.486 176.591H122.554C122.395 175.75 122.016 175.049 121.418 174.489C120.827 173.92 120.035 173.636 119.043 173.636C118.202 173.636 117.463 173.864 116.827 174.318C116.19 174.765 115.694 175.409 115.338 176.25C114.99 177.091 114.815 178.098 114.815 179.273C114.815 180.462 114.99 181.485 115.338 182.341C115.687 183.189 116.175 183.845 116.804 184.307C117.44 184.761 118.187 184.989 119.043 184.989C119.649 184.989 120.19 184.875 120.668 184.648C121.152 184.413 121.558 184.076 121.884 183.636C122.209 183.197 122.433 182.663 122.554 182.034H126.486C126.387 183.269 126.024 184.364 125.395 185.318C124.766 186.265 123.91 187.008 122.827 187.545C121.743 188.076 120.471 188.341 119.009 188.341ZM129.864 188V170.545H133.852V173.455H134.034C134.352 172.447 134.898 171.67 135.67 171.125C136.451 170.572 137.341 170.295 138.341 170.295C138.568 170.295 138.822 170.307 139.102 170.33C139.39 170.345 139.629 170.371 139.818 170.409V174.193C139.644 174.133 139.367 174.08 138.989 174.034C138.617 173.981 138.258 173.955 137.909 173.955C137.159 173.955 136.485 174.117 135.886 174.443C135.295 174.761 134.83 175.205 134.489 175.773C134.148 176.341 133.977 176.996 133.977 177.739V188H129.864ZM149.56 188.341C147.81 188.341 146.298 187.977 145.026 187.25C143.76 186.515 142.787 185.477 142.105 184.136C141.423 182.788 141.082 181.201 141.082 179.375C141.082 177.58 141.423 176.004 142.105 174.648C142.795 173.284 143.757 172.223 144.991 171.466C146.226 170.701 147.677 170.318 149.344 170.318C150.42 170.318 151.435 170.492 152.389 170.841C153.351 171.182 154.2 171.712 154.935 172.432C155.677 173.152 156.26 174.068 156.685 175.182C157.109 176.288 157.321 177.606 157.321 179.136V180.398H143.014V177.625H153.378C153.37 176.837 153.2 176.136 152.866 175.523C152.533 174.902 152.067 174.413 151.469 174.057C150.878 173.701 150.188 173.523 149.401 173.523C148.56 173.523 147.821 173.727 147.185 174.136C146.548 174.538 146.052 175.068 145.696 175.727C145.348 176.379 145.17 177.095 145.162 177.875V180.295C145.162 181.311 145.348 182.182 145.719 182.909C146.09 183.629 146.609 184.182 147.276 184.568C147.942 184.947 148.723 185.136 149.616 185.136C150.215 185.136 150.757 185.053 151.241 184.886C151.726 184.712 152.147 184.458 152.503 184.125C152.859 183.792 153.128 183.379 153.31 182.886L157.151 183.318C156.908 184.333 156.446 185.22 155.764 185.977C155.09 186.727 154.226 187.311 153.173 187.727C152.12 188.136 150.916 188.341 149.56 188.341ZM169.517 170.545V173.727H159.483V170.545H169.517ZM161.96 166.364H166.074V182.75C166.074 183.303 166.157 183.727 166.324 184.023C166.498 184.311 166.725 184.508 167.006 184.614C167.286 184.72 167.597 184.773 167.938 184.773C168.195 184.773 168.43 184.754 168.642 184.716C168.862 184.678 169.028 184.644 169.142 184.614L169.835 187.83C169.616 187.905 169.301 187.989 168.892 188.08C168.491 188.17 167.998 188.223 167.415 188.239C166.384 188.269 165.456 188.114 164.631 187.773C163.805 187.424 163.15 186.886 162.665 186.159C162.188 185.432 161.953 184.523 161.96 183.432V166.364ZM186.503 175.159L182.753 175.568C182.647 175.189 182.461 174.833 182.196 174.5C181.938 174.167 181.59 173.898 181.151 173.693C180.711 173.489 180.173 173.386 179.537 173.386C178.681 173.386 177.961 173.572 177.378 173.943C176.802 174.314 176.518 174.795 176.526 175.386C176.518 175.894 176.704 176.307 177.082 176.625C177.469 176.943 178.105 177.205 178.991 177.409L181.969 178.045C183.62 178.402 184.848 178.966 185.651 179.739C186.461 180.511 186.87 181.523 186.878 182.773C186.87 183.871 186.548 184.841 185.912 185.682C185.283 186.515 184.408 187.167 183.287 187.636C182.166 188.106 180.878 188.341 179.423 188.341C177.287 188.341 175.567 187.894 174.264 187C172.961 186.098 172.185 184.845 171.935 183.239L175.946 182.852C176.128 183.64 176.514 184.235 177.105 184.636C177.696 185.038 178.465 185.239 179.412 185.239C180.389 185.239 181.173 185.038 181.764 184.636C182.363 184.235 182.662 183.739 182.662 183.148C182.662 182.648 182.469 182.235 182.082 181.909C181.704 181.583 181.113 181.333 180.31 181.159L177.332 180.534C175.658 180.186 174.42 179.598 173.616 178.773C172.813 177.939 172.416 176.886 172.423 175.614C172.416 174.538 172.707 173.606 173.298 172.818C173.897 172.023 174.726 171.409 175.787 170.977C176.855 170.538 178.086 170.318 179.48 170.318C181.526 170.318 183.135 170.754 184.31 171.625C185.491 172.496 186.223 173.674 186.503 175.159Z" fill="#FF5722"/>
</svg>
