<svg width="1294" height="1366" viewBox="0 0 1294 1366" fill="none" xmlns="http://www.w3.org/2000/svg">
<path d="M640.208 535.46C589.695 535.46 548.748 570.967 548.748 614.765C548.748 635.759 558.172 654.832 573.53 669.02L597.133 688.443L573.53 823.109V829.147C573.53 835.9 579.903 841.427 587.692 841.427H690.363C698.152 841.427 704.524 835.9 704.524 829.147V821.984L683.16 688.443L704.524 671.137C721.28 656.761 731.667 636.817 731.667 614.765C731.667 570.967 690.72 535.46 640.208 535.46Z" fill="#FF5722"/>
<path d="M685.99 201.679H612.342C545.94 201.679 491.918 252.005 491.918 313.866V437.18H806.414V313.866C806.414 252.005 752.392 201.679 685.99 201.679Z" fill="#FF5722"/>
<path d="M919.87 840.5C919.87 898.124 869.262 945.27 807.408 945.27H469.026C407.172 945.27 356.565 898.124 356.565 840.5V541.951C356.565 496.331 388.296 457.303 432.202 443.013V313.866C432.202 221.332 513.013 146.048 612.341 146.048H685.989C785.318 146.048 866.128 221.332 866.128 313.866V452.713C898.303 471.202 919.87 504.339 919.87 541.951V840.5ZM648 0C344.243 0 98 246.244 98 550C98 853.757 344.243 1100 648 1100C951.756 1100 1198 853.757 1198 550C1198 246.244 951.756 0 648 0Z" fill="#FF5722"/>
<path d="M102.734 1196.98C102.005 1190.16 98.9323 1184.85 93.5156 1181.05C88.151 1177.24 81.1719 1175.34 72.5781 1175.34C66.5365 1175.34 61.3542 1176.26 57.0313 1178.08C52.7083 1179.9 49.401 1182.37 47.1094 1185.5C44.8177 1188.62 43.6458 1192.19 43.5938 1196.2C43.5938 1199.54 44.349 1202.43 45.8594 1204.87C47.4219 1207.32 49.5313 1209.41 52.1875 1211.12C54.8438 1212.79 57.7865 1214.2 61.0156 1215.34C64.2448 1216.49 67.5 1217.45 70.7813 1218.23L85.7813 1221.98C91.8229 1223.39 97.6302 1225.29 103.203 1227.69C108.828 1230.08 113.854 1233.1 118.281 1236.75C122.76 1240.4 126.302 1244.8 128.906 1249.95C131.51 1255.11 132.813 1261.15 132.813 1268.08C132.813 1277.45 130.417 1285.71 125.625 1292.84C120.833 1299.93 113.906 1305.47 104.844 1309.48C95.8333 1313.44 84.9219 1315.42 72.1094 1315.42C59.6615 1315.42 48.8542 1313.49 39.6875 1309.64C30.5729 1305.79 23.4375 1300.16 18.2813 1292.77C13.1771 1285.37 10.4167 1276.36 10 1265.73H38.5156C38.9323 1271.31 40.651 1275.94 43.6719 1279.64C46.6927 1283.34 50.625 1286.1 55.4688 1287.92C60.3646 1289.74 65.8333 1290.66 71.875 1290.66C78.1771 1290.66 83.6979 1289.72 88.4375 1287.84C93.2292 1285.92 96.9792 1283.26 99.6875 1279.87C102.396 1276.44 103.776 1272.43 103.828 1267.84C103.776 1263.68 102.552 1260.24 100.156 1257.53C97.7604 1254.77 94.401 1252.48 90.0781 1250.66C85.8073 1248.78 80.8073 1247.11 75.0781 1245.66L56.875 1240.97C43.6979 1237.58 33.2813 1232.45 25.625 1225.58C18.0208 1218.65 14.2188 1209.46 14.2188 1198C14.2188 1188.57 16.7708 1180.32 21.875 1173.23C27.0313 1166.15 34.0365 1160.66 42.8906 1156.75C51.7448 1152.79 61.7708 1150.81 72.9688 1150.81C84.3229 1150.81 94.2708 1152.79 102.813 1156.75C111.406 1160.66 118.151 1166.1 123.047 1173.08C127.943 1180.01 130.469 1187.97 130.625 1196.98H102.734ZM191.934 1315.42C184.329 1315.42 177.48 1314.07 171.387 1311.36C165.345 1308.6 160.553 1304.54 157.012 1299.17C153.522 1293.81 151.777 1287.19 151.777 1279.33C151.777 1272.56 153.027 1266.96 155.527 1262.53C158.027 1258.1 161.439 1254.56 165.762 1251.91C170.085 1249.25 174.954 1247.24 180.371 1245.89C185.84 1244.48 191.491 1243.47 197.324 1242.84C204.355 1242.11 210.059 1241.46 214.434 1240.89C218.809 1240.27 221.986 1239.33 223.965 1238.08C225.996 1236.78 227.012 1234.77 227.012 1232.06V1231.59C227.012 1225.71 225.267 1221.15 221.777 1217.92C218.288 1214.69 213.262 1213.08 206.699 1213.08C199.772 1213.08 194.277 1214.59 190.215 1217.61C186.204 1220.63 183.496 1224.2 182.09 1228.31L155.684 1224.56C157.767 1217.27 161.204 1211.18 165.996 1206.28C170.788 1201.33 176.647 1197.64 183.574 1195.19C190.501 1192.69 198.158 1191.44 206.543 1191.44C212.324 1191.44 218.079 1192.11 223.809 1193.47C229.538 1194.82 234.772 1197.06 239.512 1200.19C244.251 1203.26 248.053 1207.45 250.918 1212.77C253.835 1218.08 255.293 1224.72 255.293 1232.69V1313H228.105V1296.52H227.168C225.449 1299.85 223.027 1302.97 219.902 1305.89C216.829 1308.76 212.949 1311.07 208.262 1312.84C203.626 1314.56 198.184 1315.42 191.934 1315.42ZM199.277 1294.64C204.954 1294.64 209.876 1293.52 214.043 1291.28C218.21 1288.99 221.413 1285.97 223.652 1282.22C225.944 1278.47 227.09 1274.38 227.09 1269.95V1255.81C226.204 1256.54 224.694 1257.22 222.559 1257.84C220.475 1258.47 218.132 1259.02 215.527 1259.48C212.923 1259.95 210.345 1260.37 207.793 1260.73C205.241 1261.1 203.027 1261.41 201.152 1261.67C196.934 1262.24 193.158 1263.18 189.824 1264.48C186.491 1265.79 183.861 1267.61 181.934 1269.95C180.007 1272.24 179.043 1275.21 179.043 1278.86C179.043 1284.07 180.944 1288 184.746 1290.66C188.548 1293.31 193.392 1294.64 199.277 1294.64ZM344.512 1193V1214.87H273.574V1193H344.512ZM291.309 1313V1181.67C291.309 1173.6 292.975 1166.88 296.309 1161.52C299.694 1156.15 304.225 1152.14 309.902 1149.48C315.579 1146.83 321.882 1145.5 328.809 1145.5C333.704 1145.5 338.053 1145.89 341.855 1146.67C345.658 1147.45 348.47 1148.16 350.293 1148.78L344.668 1170.66C343.47 1170.29 341.96 1169.93 340.137 1169.56C338.314 1169.15 336.283 1168.94 334.043 1168.94C328.783 1168.94 325.059 1170.21 322.871 1172.77C320.736 1175.27 319.668 1178.86 319.668 1183.55V1313H291.309ZM415.273 1315.34C403.242 1315.34 392.852 1312.84 384.102 1307.84C375.404 1302.79 368.711 1295.66 364.023 1286.44C359.336 1277.17 356.992 1266.26 356.992 1253.7C356.992 1241.36 359.336 1230.53 364.023 1221.2C368.763 1211.83 375.378 1204.54 383.867 1199.33C392.357 1194.07 402.331 1191.44 413.789 1191.44C421.185 1191.44 428.164 1192.64 434.727 1195.03C441.341 1197.37 447.174 1201.02 452.227 1205.97C457.331 1210.92 461.341 1217.22 464.258 1224.87C467.174 1232.48 468.633 1241.54 468.633 1252.06V1260.73H370.273V1241.67H441.523C441.471 1236.26 440.299 1231.44 438.008 1227.22C435.716 1222.95 432.513 1219.59 428.398 1217.14C424.336 1214.69 419.596 1213.47 414.18 1213.47C408.398 1213.47 403.32 1214.87 398.945 1217.69C394.57 1220.45 391.159 1224.09 388.711 1228.62C386.315 1233.1 385.091 1238.03 385.039 1243.39V1260.03C385.039 1267.01 386.315 1273 388.867 1278C391.419 1282.95 394.987 1286.75 399.57 1289.41C404.154 1292.01 409.518 1293.31 415.664 1293.31C419.779 1293.31 423.503 1292.74 426.836 1291.59C430.169 1290.4 433.06 1288.65 435.508 1286.36C437.956 1284.07 439.805 1281.23 441.055 1277.84L467.461 1280.81C465.794 1287.79 462.617 1293.89 457.93 1299.09C453.294 1304.25 447.357 1308.26 440.117 1311.12C432.878 1313.94 424.596 1315.34 415.273 1315.34ZM580.762 1196.98C580.033 1190.16 576.96 1184.85 571.543 1181.05C566.178 1177.24 559.199 1175.34 550.605 1175.34C544.564 1175.34 539.382 1176.26 535.059 1178.08C530.736 1179.9 527.428 1182.37 525.137 1185.5C522.845 1188.62 521.673 1192.19 521.621 1196.2C521.621 1199.54 522.376 1202.43 523.887 1204.87C525.449 1207.32 527.559 1209.41 530.215 1211.12C532.871 1212.79 535.814 1214.2 539.043 1215.34C542.272 1216.49 545.527 1217.45 548.809 1218.23L563.809 1221.98C569.85 1223.39 575.658 1225.29 581.23 1227.69C586.855 1230.08 591.882 1233.1 596.309 1236.75C600.788 1240.4 604.329 1244.8 606.934 1249.95C609.538 1255.11 610.84 1261.15 610.84 1268.08C610.84 1277.45 608.444 1285.71 603.652 1292.84C598.861 1299.93 591.934 1305.47 582.871 1309.48C573.861 1313.44 562.949 1315.42 550.137 1315.42C537.689 1315.42 526.882 1313.49 517.715 1309.64C508.6 1305.79 501.465 1300.16 496.309 1292.77C491.204 1285.37 488.444 1276.36 488.027 1265.73H516.543C516.96 1271.31 518.678 1275.94 521.699 1279.64C524.72 1283.34 528.652 1286.1 533.496 1287.92C538.392 1289.74 543.861 1290.66 549.902 1290.66C556.204 1290.66 561.725 1289.72 566.465 1287.84C571.257 1285.92 575.007 1283.26 577.715 1279.87C580.423 1276.44 581.803 1272.43 581.855 1267.84C581.803 1263.68 580.579 1260.24 578.184 1257.53C575.788 1254.77 572.428 1252.48 568.105 1250.66C563.835 1248.78 558.835 1247.11 553.105 1245.66L534.902 1240.97C521.725 1237.58 511.309 1232.45 503.652 1225.58C496.048 1218.65 492.246 1209.46 492.246 1198C492.246 1188.57 494.798 1180.32 499.902 1173.23C505.059 1166.15 512.064 1160.66 520.918 1156.75C529.772 1152.79 539.798 1150.81 550.996 1150.81C562.35 1150.81 572.298 1152.79 580.84 1156.75C589.434 1160.66 596.178 1166.1 601.074 1173.08C605.97 1180.01 608.496 1187.97 608.652 1196.98H580.762ZM688.555 1315.34C676.523 1315.34 666.133 1312.84 657.383 1307.84C648.685 1302.79 641.992 1295.66 637.305 1286.44C632.617 1277.17 630.273 1266.26 630.273 1253.7C630.273 1241.36 632.617 1230.53 637.305 1221.2C642.044 1211.83 648.659 1204.54 657.148 1199.33C665.638 1194.07 675.612 1191.44 687.07 1191.44C694.466 1191.44 701.445 1192.64 708.008 1195.03C714.622 1197.37 720.456 1201.02 725.508 1205.97C730.612 1210.92 734.622 1217.22 737.539 1224.87C740.456 1232.48 741.914 1241.54 741.914 1252.06V1260.73H643.555V1241.67H714.805C714.753 1236.26 713.581 1231.44 711.289 1227.22C708.997 1222.95 705.794 1219.59 701.68 1217.14C697.617 1214.69 692.878 1213.47 687.461 1213.47C681.68 1213.47 676.602 1214.87 672.227 1217.69C667.852 1220.45 664.44 1224.09 661.992 1228.62C659.596 1233.1 658.372 1238.03 658.32 1243.39V1260.03C658.32 1267.01 659.596 1273 662.148 1278C664.701 1282.95 668.268 1286.75 672.852 1289.41C677.435 1292.01 682.799 1293.31 688.945 1293.31C693.06 1293.31 696.784 1292.74 700.117 1291.59C703.451 1290.4 706.341 1288.65 708.789 1286.36C711.237 1284.07 713.086 1281.23 714.336 1277.84L740.742 1280.81C739.076 1287.79 735.898 1293.89 731.211 1299.09C726.576 1304.25 720.638 1308.26 713.398 1311.12C706.159 1313.94 697.878 1315.34 688.555 1315.34ZM818.184 1315.34C806.204 1315.34 795.918 1312.71 787.324 1307.45C778.783 1302.19 772.194 1294.93 767.559 1285.66C762.975 1276.33 760.684 1265.6 760.684 1253.47C760.684 1241.28 763.027 1230.53 767.715 1221.2C772.402 1211.83 779.017 1204.54 787.559 1199.33C796.152 1194.07 806.309 1191.44 818.027 1191.44C827.767 1191.44 836.387 1193.23 843.887 1196.83C851.439 1200.37 857.454 1205.4 861.934 1211.91C866.413 1218.36 868.965 1225.92 869.59 1234.56H842.559C841.465 1228.78 838.861 1223.96 834.746 1220.11C830.684 1216.2 825.241 1214.25 818.418 1214.25C812.637 1214.25 807.559 1215.81 803.184 1218.94C798.809 1222.01 795.397 1226.44 792.949 1232.22C790.553 1238 789.355 1244.93 789.355 1253C789.355 1261.18 790.553 1268.21 792.949 1274.09C795.345 1279.93 798.704 1284.43 803.027 1287.61C807.402 1290.73 812.533 1292.3 818.418 1292.3C822.585 1292.3 826.309 1291.52 829.59 1289.95C832.923 1288.34 835.71 1286.02 837.949 1283C840.189 1279.98 841.725 1276.31 842.559 1271.98H869.59C868.913 1280.47 866.413 1288 862.09 1294.56C857.767 1301.07 851.882 1306.18 844.434 1309.87C836.986 1313.52 828.236 1315.34 818.184 1315.34ZM892.813 1313V1193H920.234V1213H921.484C923.672 1206.07 927.422 1200.73 932.734 1196.98C938.099 1193.18 944.219 1191.28 951.094 1191.28C952.656 1191.28 954.401 1191.36 956.328 1191.52C958.307 1191.62 959.948 1191.8 961.25 1192.06V1218.08C960.052 1217.66 958.151 1217.3 955.547 1216.98C952.995 1216.62 950.521 1216.44 948.125 1216.44C942.969 1216.44 938.333 1217.56 934.219 1219.8C930.156 1221.98 926.953 1225.03 924.609 1228.94C922.266 1232.84 921.094 1237.35 921.094 1242.45V1313H892.813ZM1028.22 1315.34C1016.19 1315.34 1005.8 1312.84 997.051 1307.84C988.353 1302.79 981.66 1295.66 976.973 1286.44C972.285 1277.17 969.941 1266.26 969.941 1253.7C969.941 1241.36 972.285 1230.53 976.973 1221.2C981.712 1211.83 988.327 1204.54 996.816 1199.33C1005.31 1194.07 1015.28 1191.44 1026.74 1191.44C1034.13 1191.44 1041.11 1192.64 1047.68 1195.03C1054.29 1197.37 1060.12 1201.02 1065.18 1205.97C1070.28 1210.92 1074.29 1217.22 1077.21 1224.87C1080.12 1232.48 1081.58 1241.54 1081.58 1252.06V1260.73H983.223V1241.67H1054.47C1054.42 1236.26 1053.25 1231.44 1050.96 1227.22C1048.67 1222.95 1045.46 1219.59 1041.35 1217.14C1037.29 1214.69 1032.55 1213.47 1027.13 1213.47C1021.35 1213.47 1016.27 1214.87 1011.89 1217.69C1007.52 1220.45 1004.11 1224.09 1001.66 1228.62C999.264 1233.1 998.04 1238.03 997.988 1243.39V1260.03C997.988 1267.01 999.264 1273 1001.82 1278C1004.37 1282.95 1007.94 1286.75 1012.52 1289.41C1017.1 1292.01 1022.47 1293.31 1028.61 1293.31C1032.73 1293.31 1036.45 1292.74 1039.79 1291.59C1043.12 1290.4 1046.01 1288.65 1048.46 1286.36C1050.9 1284.07 1052.75 1281.23 1054 1277.84L1080.41 1280.81C1078.74 1287.79 1075.57 1293.89 1070.88 1299.09C1066.24 1304.25 1060.31 1308.26 1053.07 1311.12C1045.83 1313.94 1037.55 1315.34 1028.22 1315.34ZM1165.43 1193V1214.87H1096.45V1193H1165.43ZM1113.48 1164.25H1141.76V1276.91C1141.76 1280.71 1142.33 1283.63 1143.48 1285.66C1144.67 1287.64 1146.24 1288.99 1148.16 1289.72C1150.09 1290.45 1152.23 1290.81 1154.57 1290.81C1156.34 1290.81 1157.96 1290.68 1159.41 1290.42C1160.92 1290.16 1162.07 1289.93 1162.85 1289.72L1167.62 1311.83C1166.11 1312.35 1163.95 1312.92 1161.13 1313.55C1158.37 1314.17 1154.99 1314.54 1150.98 1314.64C1143.89 1314.85 1137.51 1313.78 1131.84 1311.44C1126.16 1309.04 1121.65 1305.34 1118.32 1300.34C1115.04 1295.34 1113.42 1289.09 1113.48 1281.59V1164.25ZM1282.21 1224.72L1256.43 1227.53C1255.7 1224.93 1254.42 1222.48 1252.6 1220.19C1250.83 1217.9 1248.43 1216.05 1245.41 1214.64C1242.39 1213.23 1238.69 1212.53 1234.32 1212.53C1228.43 1212.53 1223.48 1213.81 1219.47 1216.36C1215.51 1218.91 1213.56 1222.22 1213.61 1226.28C1213.56 1229.77 1214.84 1232.61 1217.44 1234.8C1220.1 1236.98 1224.47 1238.78 1230.57 1240.19L1251.04 1244.56C1262.39 1247.01 1270.83 1250.89 1276.35 1256.2C1281.92 1261.52 1284.73 1268.47 1284.79 1277.06C1284.73 1284.61 1282.52 1291.28 1278.14 1297.06C1273.82 1302.79 1267.81 1307.27 1260.1 1310.5C1252.39 1313.73 1243.54 1315.34 1233.54 1315.34C1218.85 1315.34 1207.02 1312.27 1198.07 1306.12C1189.11 1299.93 1183.77 1291.31 1182.05 1280.27L1209.63 1277.61C1210.88 1283.03 1213.54 1287.11 1217.6 1289.87C1221.66 1292.64 1226.95 1294.02 1233.46 1294.02C1240.18 1294.02 1245.57 1292.64 1249.63 1289.87C1253.74 1287.11 1255.8 1283.7 1255.8 1279.64C1255.8 1276.2 1254.47 1273.36 1251.82 1271.12C1249.21 1268.89 1245.15 1267.17 1239.63 1265.97L1219.16 1261.67C1207.65 1259.28 1199.13 1255.24 1193.61 1249.56C1188.09 1243.83 1185.36 1236.59 1185.41 1227.84C1185.36 1220.45 1187.36 1214.04 1191.43 1208.62C1195.54 1203.16 1201.24 1198.94 1208.54 1195.97C1215.88 1192.95 1224.34 1191.44 1233.93 1191.44C1247.99 1191.44 1259.06 1194.43 1267.13 1200.42C1275.25 1206.41 1280.28 1214.51 1282.21 1224.72Z" fill="#FF5722"/>
</svg>
