<svg width="512" height="512" viewBox="0 0 512 512" fill="none" xmlns="http://www.w3.org/2000/svg">
<path d="M252.99 208.95C233.471 208.95 217.648 222.806 217.648 239.898C217.648 248.09 221.29 255.533 227.225 261.069L236.345 268.649L227.225 321.199V323.555C227.225 326.19 229.687 328.347 232.697 328.347H272.371C275.38 328.347 277.843 326.19 277.843 323.555V320.76L269.587 268.649L277.843 261.895C284.317 256.285 288.331 248.503 288.331 239.898C288.331 222.806 272.509 208.95 252.99 208.95" fill="#FF5722"/>
<path d="M270.68 78.7001H242.221C216.562 78.7001 195.688 98.3388 195.688 122.478V170.599H317.213V122.478C317.213 98.3388 296.339 78.7001 270.68 78.7001" fill="#FF5722"/>
<path d="M361.054 327.984C361.054 350.471 341.498 368.868 317.597 368.868H186.841C162.939 368.868 143.384 350.471 143.384 327.984V211.483C143.384 193.681 155.645 178.451 172.611 172.875V122.478C172.611 86.369 203.838 56.9915 242.22 56.9915H270.678C309.061 56.9915 340.287 86.369 340.287 122.478V176.66C352.72 183.875 361.054 196.806 361.054 211.483V327.984ZM255.999 -0.000396706C138.623 -0.000396706 43.4707 96.0902 43.4707 214.624C43.4707 333.157 138.623 429.248 255.999 429.248C373.375 429.248 468.527 333.157 468.527 214.624C468.527 96.0902 373.375 -0.000396706 255.999 -0.000396706Z" fill="#FF5722"/>
<path d="M39.2259 466.703C38.9474 464.098 37.7741 462.07 35.706 460.618C33.6577 459.166 30.9929 458.44 27.7116 458.44C25.4048 458.44 23.4261 458.788 21.7756 459.484C20.125 460.18 18.8622 461.125 17.9872 462.318C17.1122 463.511 16.6648 464.874 16.6449 466.405C16.6449 467.678 16.9332 468.781 17.5099 469.716C18.1065 470.651 18.9119 471.446 19.9261 472.102C20.9403 472.739 22.0639 473.276 23.2969 473.713C24.5298 474.151 25.7727 474.518 27.0256 474.817L32.7528 476.249C35.0597 476.786 37.277 477.511 39.4048 478.426C41.5526 479.341 43.4716 480.494 45.1619 481.886C46.8722 483.278 48.2244 484.959 49.2188 486.928C50.2131 488.896 50.7102 491.203 50.7102 493.848C50.7102 497.428 49.7955 500.58 47.9659 503.304C46.1364 506.009 43.4915 508.126 40.0312 509.658C36.5909 511.169 32.4247 511.925 27.5327 511.925C22.7798 511.925 18.6534 511.189 15.1534 509.717C11.6733 508.246 8.94886 506.098 6.98011 503.274C5.03125 500.45 3.97727 497.01 3.81818 492.953H14.706C14.8651 495.081 15.5213 496.851 16.6747 498.263C17.8281 499.675 19.3295 500.729 21.179 501.425C23.0483 502.121 25.1364 502.469 27.4432 502.469C29.8494 502.469 31.9574 502.111 33.767 501.395C35.5966 500.659 37.0284 499.645 38.0625 498.352C39.0966 497.04 39.6236 495.509 39.6435 493.759C39.6236 492.168 39.1563 490.855 38.2415 489.821C37.3267 488.767 36.044 487.892 34.3935 487.196C32.7628 486.48 30.8537 485.844 28.6662 485.287L21.7159 483.497C16.6847 482.205 12.7074 480.246 9.78409 477.621C6.88068 474.976 5.42898 471.466 5.42898 467.091C5.42898 463.491 6.40341 460.339 8.35227 457.635C10.321 454.93 12.9957 452.832 16.3764 451.341C19.7571 449.83 23.5852 449.074 27.8608 449.074C32.196 449.074 35.9943 449.83 39.2557 451.341C42.5369 452.832 45.1122 454.911 46.9815 457.575C48.8509 460.22 49.8153 463.263 49.875 466.703H39.2259ZM73.2837 511.925C70.3803 511.925 67.7653 511.408 65.4386 510.374C63.1317 509.32 61.3022 507.768 59.9499 505.72C58.6175 503.672 57.9513 501.146 57.9513 498.143C57.9513 495.558 58.4286 493.42 59.3832 491.73C60.3377 490.04 61.6403 488.688 63.2908 487.673C64.9414 486.659 66.8008 485.893 68.869 485.376C70.957 484.839 73.1147 484.452 75.342 484.213C78.0266 483.935 80.2042 483.686 81.8746 483.467C83.5451 483.229 84.7582 482.871 85.5139 482.393C86.2894 481.896 86.6772 481.131 86.6772 480.097V479.918C86.6772 477.67 86.011 475.93 84.6786 474.697C83.3462 473.464 81.4272 472.848 78.9215 472.848C76.2766 472.848 74.1786 473.425 72.6275 474.578C71.0962 475.732 70.0621 477.094 69.5252 478.665L59.4428 477.233C60.2383 474.449 61.5508 472.122 63.3803 470.253C65.2099 468.364 67.4471 466.952 70.092 466.017C72.7369 465.062 75.6602 464.585 78.8619 464.585C81.0692 464.585 83.2667 464.844 85.4542 465.361C87.6417 465.878 89.6403 466.733 91.4499 467.926C93.2596 469.099 94.7113 470.7 95.805 472.729C96.9187 474.757 97.4755 477.293 97.4755 480.335V511H87.0948V504.706H86.7369C86.0806 505.979 85.1559 507.172 83.9627 508.286C82.7894 509.379 81.3079 510.264 79.5181 510.94C77.7482 511.597 75.6701 511.925 73.2837 511.925ZM76.0877 503.99C78.2553 503.99 80.1346 503.562 81.7255 502.707C83.3164 501.832 84.5394 500.679 85.3945 499.247C86.2695 497.815 86.707 496.254 86.707 494.564V489.165C86.369 489.443 85.7923 489.702 84.9769 489.94C84.1815 490.179 83.2866 490.388 82.2923 490.567C81.2979 490.746 80.3136 490.905 79.3391 491.044C78.3647 491.183 77.5195 491.303 76.8036 491.402C75.1928 491.621 73.7511 491.979 72.4783 492.476C71.2056 492.973 70.2014 493.669 69.4656 494.564C68.7298 495.439 68.3619 496.572 68.3619 497.964C68.3619 499.953 69.0877 501.455 70.5394 502.469C71.9911 503.483 73.8406 503.99 76.0877 503.99ZM131.541 465.182V473.534H104.456V465.182H131.541ZM111.227 511V460.857C111.227 457.774 111.863 455.209 113.136 453.161C114.429 451.112 116.159 449.581 118.326 448.567C120.494 447.553 122.9 447.045 125.545 447.045C127.414 447.045 129.075 447.195 130.527 447.493C131.978 447.791 133.052 448.06 133.748 448.298L131.6 456.651C131.143 456.511 130.566 456.372 129.87 456.233C129.174 456.074 128.399 455.994 127.544 455.994C125.535 455.994 124.113 456.482 123.278 457.456C122.463 458.411 122.055 459.783 122.055 461.572V511H111.227ZM158.559 511.895C153.965 511.895 149.998 510.94 146.657 509.031C143.336 507.102 140.781 504.378 138.991 500.858C137.201 497.318 136.306 493.152 136.306 488.359C136.306 483.646 137.201 479.51 138.991 475.95C140.8 472.371 143.326 469.587 146.567 467.598C149.809 465.589 153.617 464.585 157.992 464.585C160.816 464.585 163.481 465.043 165.987 465.957C168.512 466.852 170.739 468.244 172.668 470.134C174.617 472.023 176.148 474.429 177.262 477.352C178.376 480.256 178.933 483.716 178.933 487.733V491.044H141.377V483.766H168.582C168.562 481.697 168.114 479.858 167.239 478.247C166.364 476.616 165.141 475.334 163.57 474.399C162.019 473.464 160.21 472.997 158.141 472.997C155.934 472.997 153.995 473.534 152.325 474.608C150.654 475.662 149.352 477.054 148.417 478.784C147.502 480.494 147.035 482.374 147.015 484.422V490.776C147.015 493.44 147.502 495.727 148.477 497.636C149.451 499.526 150.813 500.977 152.563 501.991C154.313 502.986 156.362 503.483 158.708 503.483C160.279 503.483 161.701 503.264 162.974 502.827C164.246 502.369 165.35 501.703 166.285 500.828C167.219 499.953 167.925 498.869 168.403 497.577L178.485 498.71C177.849 501.375 176.636 503.702 174.846 505.69C173.076 507.659 170.809 509.19 168.045 510.284C165.281 511.358 162.119 511.895 158.559 511.895ZM221.745 466.703C221.467 464.098 220.294 462.07 218.225 460.618C216.177 459.166 213.512 458.44 210.231 458.44C207.924 458.44 205.946 458.788 204.295 459.484C202.645 460.18 201.382 461.125 200.507 462.318C199.632 463.511 199.184 464.874 199.164 466.405C199.164 467.678 199.453 468.781 200.029 469.716C200.626 470.651 201.431 471.446 202.446 472.102C203.46 472.739 204.583 473.276 205.816 473.713C207.049 474.151 208.292 474.518 209.545 474.817L215.272 476.249C217.579 476.786 219.797 477.511 221.924 478.426C224.072 479.341 225.991 480.494 227.681 481.886C229.392 483.278 230.744 484.959 231.738 486.928C232.733 488.896 233.23 491.203 233.23 493.848C233.23 497.428 232.315 500.58 230.485 503.304C228.656 506.009 226.011 508.126 222.551 509.658C219.11 511.169 214.944 511.925 210.052 511.925C205.299 511.925 201.173 511.189 197.673 509.717C194.193 508.246 191.468 506.098 189.5 503.274C187.551 500.45 186.497 497.01 186.338 492.953H197.225C197.385 495.081 198.041 496.851 199.194 498.263C200.348 499.675 201.849 500.729 203.699 501.425C205.568 502.121 207.656 502.469 209.963 502.469C212.369 502.469 214.477 502.111 216.287 501.395C218.116 500.659 219.548 499.645 220.582 498.352C221.616 497.04 222.143 495.509 222.163 493.759C222.143 492.168 221.676 490.855 220.761 489.821C219.846 488.767 218.564 487.892 216.913 487.196C215.282 486.48 213.373 485.844 211.186 485.287L204.235 483.497C199.204 482.205 195.227 480.246 192.304 477.621C189.4 474.976 187.949 471.466 187.949 467.091C187.949 463.491 188.923 460.339 190.872 457.635C192.841 454.93 195.515 452.832 198.896 451.341C202.277 449.83 206.105 449.074 210.38 449.074C214.716 449.074 218.514 449.83 221.775 451.341C225.056 452.832 227.632 454.911 229.501 457.575C231.37 460.22 232.335 463.263 232.395 466.703H221.745ZM262.903 511.895C258.309 511.895 254.342 510.94 251.001 509.031C247.68 507.102 245.124 504.378 243.335 500.858C241.545 497.318 240.65 493.152 240.65 488.359C240.65 483.646 241.545 479.51 243.335 475.95C245.144 472.371 247.67 469.587 250.911 467.598C254.153 465.589 257.961 464.585 262.336 464.585C265.16 464.585 267.825 465.043 270.33 465.957C272.856 466.852 275.083 468.244 277.012 470.134C278.961 472.023 280.492 474.429 281.606 477.352C282.719 480.256 283.276 483.716 283.276 487.733V491.044H245.721V483.766H272.925C272.906 481.697 272.458 479.858 271.583 478.247C270.708 476.616 269.485 475.334 267.914 474.399C266.363 473.464 264.553 472.997 262.485 472.997C260.278 472.997 258.339 473.534 256.668 474.608C254.998 475.662 253.695 477.054 252.761 478.784C251.846 480.494 251.379 482.374 251.359 484.422V490.776C251.359 493.44 251.846 495.727 252.82 497.636C253.795 499.526 255.157 500.977 256.907 501.991C258.657 502.986 260.705 503.483 263.052 503.483C264.623 503.483 266.045 503.264 267.317 502.827C268.59 502.369 269.694 501.703 270.629 500.828C271.563 499.953 272.269 498.869 272.746 497.577L282.829 498.71C282.192 501.375 280.979 503.702 279.19 505.69C277.42 507.659 275.153 509.19 272.388 510.284C269.624 511.358 266.462 511.895 262.903 511.895ZM312.397 511.895C307.824 511.895 303.896 510.891 300.615 508.882C297.353 506.874 294.838 504.099 293.068 500.56C291.318 497 290.443 492.903 290.443 488.27C290.443 483.616 291.338 479.51 293.127 475.95C294.917 472.371 297.443 469.587 300.704 467.598C303.985 465.589 307.863 464.585 312.338 464.585C316.056 464.585 319.348 465.271 322.211 466.643C325.095 467.996 327.392 469.915 329.102 472.401C330.812 474.866 331.787 477.75 332.025 481.051H321.704C321.287 478.844 320.292 477.004 318.721 475.533C317.17 474.041 315.092 473.295 312.487 473.295C310.279 473.295 308.341 473.892 306.67 475.085C305 476.259 303.697 477.949 302.762 480.156C301.848 482.364 301.39 485.009 301.39 488.091C301.39 491.213 301.848 493.898 302.762 496.145C303.677 498.372 304.96 500.092 306.61 501.305C308.281 502.499 310.24 503.095 312.487 503.095C314.078 503.095 315.5 502.797 316.752 502.2C318.025 501.584 319.089 500.699 319.944 499.545C320.799 498.392 321.386 496.99 321.704 495.339H332.025C331.767 498.581 330.812 501.455 329.162 503.96C327.511 506.446 325.264 508.395 322.42 509.807C319.576 511.199 316.235 511.895 312.397 511.895ZM340.892 511V465.182H351.362V472.818H351.839C352.675 470.173 354.107 468.135 356.135 466.703C358.183 465.251 360.52 464.526 363.145 464.526C363.741 464.526 364.408 464.555 365.143 464.615C365.899 464.655 366.526 464.724 367.023 464.824V474.757C366.565 474.598 365.839 474.459 364.845 474.339C363.871 474.2 362.926 474.131 362.011 474.131C360.043 474.131 358.273 474.558 356.702 475.413C355.151 476.249 353.928 477.412 353.033 478.903C352.138 480.395 351.69 482.115 351.69 484.064V511H340.892ZM392.594 511.895C388 511.895 384.033 510.94 380.692 509.031C377.371 507.102 374.816 504.378 373.026 500.858C371.236 497.318 370.341 493.152 370.341 488.359C370.341 483.646 371.236 479.51 373.026 475.95C374.836 472.371 377.361 469.587 380.603 467.598C383.844 465.589 387.652 464.585 392.027 464.585C394.851 464.585 397.516 465.043 400.022 465.957C402.547 466.852 404.775 468.244 406.703 470.134C408.652 472.023 410.184 474.429 411.297 477.352C412.411 480.256 412.968 483.716 412.968 487.733V491.044H375.412V483.766H402.617C402.597 481.697 402.15 479.858 401.275 478.247C400.4 476.616 399.176 475.334 397.605 474.399C396.054 473.464 394.245 472.997 392.176 472.997C389.969 472.997 388.03 473.534 386.36 474.608C384.689 475.662 383.387 477.054 382.452 478.784C381.537 480.494 381.07 482.374 381.05 484.422V490.776C381.05 493.44 381.537 495.727 382.512 497.636C383.486 499.526 384.848 500.977 386.598 501.991C388.348 502.986 390.397 503.483 392.743 503.483C394.314 503.483 395.736 503.264 397.009 502.827C398.282 502.369 399.385 501.703 400.32 500.828C401.255 499.953 401.961 498.869 402.438 497.577L412.52 498.71C411.884 501.375 410.671 503.702 408.881 505.69C407.111 507.659 404.844 509.19 402.08 510.284C399.316 511.358 396.154 511.895 392.594 511.895ZM444.982 465.182V473.534H418.643V465.182H444.982ZM425.146 454.205H435.944V497.219C435.944 498.67 436.163 499.784 436.6 500.56C437.058 501.315 437.654 501.832 438.39 502.111C439.126 502.389 439.941 502.528 440.836 502.528C441.512 502.528 442.129 502.479 442.685 502.379C443.262 502.28 443.7 502.19 443.998 502.111L445.817 510.553C445.241 510.751 444.415 510.97 443.342 511.209C442.288 511.447 440.995 511.587 439.464 511.626C436.759 511.706 434.323 511.298 432.156 510.403C429.988 509.489 428.268 508.077 426.995 506.168C425.742 504.259 425.126 501.872 425.146 499.009V454.205ZM489.57 477.293L479.726 478.366C479.448 477.372 478.961 476.438 478.265 475.562C477.588 474.688 476.674 473.982 475.52 473.445C474.367 472.908 472.955 472.639 471.284 472.639C469.037 472.639 467.148 473.126 465.617 474.101C464.105 475.075 463.36 476.338 463.38 477.889C463.36 479.222 463.847 480.305 464.841 481.141C465.855 481.976 467.526 482.662 469.853 483.199L477.668 484.869C482.003 485.804 485.225 487.286 487.333 489.314C489.461 491.342 490.534 493.997 490.554 497.278C490.534 500.162 489.689 502.707 488.019 504.915C486.368 507.102 484.071 508.812 481.128 510.045C478.185 511.278 474.804 511.895 470.986 511.895C465.378 511.895 460.864 510.722 457.444 508.375C454.023 506.009 451.985 502.717 451.328 498.501L461.858 497.487C462.336 499.555 463.35 501.116 464.901 502.17C466.452 503.224 468.471 503.751 470.956 503.751C473.522 503.751 475.58 503.224 477.131 502.17C478.702 501.116 479.488 499.814 479.488 498.263C479.488 496.95 478.98 495.866 477.966 495.011C476.972 494.156 475.421 493.5 473.313 493.043L465.498 491.402C461.103 490.487 457.851 488.946 455.743 486.778C453.635 484.591 452.591 481.827 452.611 478.486C452.591 475.662 453.357 473.216 454.908 471.148C456.479 469.06 458.657 467.449 461.441 466.315C464.245 465.162 467.476 464.585 471.135 464.585C476.505 464.585 480.73 465.729 483.813 468.016C486.915 470.303 488.834 473.395 489.57 477.293Z" fill="#FF5722"/>
</svg>
