<svg width="1600" height="1600" viewBox="0 0 1600 1600" fill="none" xmlns="http://www.w3.org/2000/svg">
<path d="M793.208 686.46C742.695 686.46 701.748 721.967 701.748 765.766C701.748 786.759 711.172 805.833 726.53 820.02L750.133 839.444L726.53 974.11V980.147C726.53 986.9 732.903 992.427 740.692 992.427H843.363C851.152 992.427 857.524 986.9 857.524 980.147V972.984L836.16 839.444L857.524 822.137C874.28 807.761 884.667 787.818 884.667 765.766C884.667 721.967 843.72 686.46 793.208 686.46" fill="#FF5722"/>
<path d="M838.989 352.679H765.341C698.939 352.679 644.917 403.005 644.917 464.866V588.18H959.413V464.866C959.413 403.005 905.391 352.679 838.989 352.679" fill="#FF5722"/>
<path d="M1072.87 991.5C1072.87 1049.12 1022.26 1096.27 960.408 1096.27H622.026C560.172 1096.27 509.565 1049.12 509.565 991.5V692.951C509.565 647.331 541.296 608.303 585.202 594.013V464.866C585.202 372.332 666.013 297.048 765.341 297.048H838.989C938.318 297.048 1019.13 372.332 1019.13 464.866V603.713C1051.3 622.202 1072.87 655.339 1072.87 692.951V991.5ZM801 151C497.244 151 251 397.244 251 701C251 1004.76 497.244 1251 801 1251C1104.76 1251 1351 1004.76 1351 701C1351 397.244 1104.76 151 801 151Z" fill="#FF5722"/>
<path d="M255.734 1347.98C255.005 1341.16 251.932 1335.85 246.516 1332.05C241.151 1328.24 234.172 1326.34 225.578 1326.34C219.536 1326.34 214.354 1327.26 210.031 1329.08C205.708 1330.9 202.401 1333.37 200.109 1336.5C197.818 1339.62 196.646 1343.19 196.594 1347.2C196.594 1350.54 197.349 1353.43 198.859 1355.87C200.422 1358.32 202.531 1360.41 205.188 1362.12C207.844 1363.79 210.786 1365.2 214.016 1366.34C217.245 1367.49 220.5 1368.45 223.781 1369.23L238.781 1372.98C244.823 1374.39 250.63 1376.29 256.203 1378.69C261.828 1381.08 266.854 1384.1 271.281 1387.75C275.76 1391.4 279.302 1395.8 281.906 1400.95C284.51 1406.11 285.813 1412.15 285.813 1419.08C285.813 1428.45 283.417 1436.71 278.625 1443.84C273.833 1450.93 266.906 1456.47 257.844 1460.48C248.833 1464.44 237.922 1466.42 225.109 1466.42C212.661 1466.42 201.854 1464.49 192.688 1460.64C183.573 1456.79 176.438 1451.16 171.281 1443.77C166.177 1436.37 163.417 1427.36 163 1416.73H191.516C191.932 1422.31 193.651 1426.94 196.672 1430.64C199.693 1434.34 203.625 1437.1 208.469 1438.92C213.365 1440.74 218.833 1441.66 224.875 1441.66C231.177 1441.66 236.698 1440.72 241.438 1438.84C246.229 1436.92 249.979 1434.26 252.688 1430.87C255.396 1427.44 256.776 1423.43 256.828 1418.84C256.776 1414.68 255.552 1411.24 253.156 1408.53C250.76 1405.77 247.401 1403.48 243.078 1401.66C238.807 1399.78 233.807 1398.11 228.078 1396.66L209.875 1391.97C196.698 1388.58 186.281 1383.45 178.625 1376.58C171.021 1369.65 167.219 1360.46 167.219 1349C167.219 1339.57 169.771 1331.32 174.875 1324.23C180.031 1317.15 187.036 1311.66 195.891 1307.75C204.745 1303.79 214.771 1301.81 225.969 1301.81C237.323 1301.81 247.271 1303.79 255.813 1307.75C264.406 1311.66 271.151 1317.1 276.047 1324.08C280.943 1331.01 283.469 1338.97 283.625 1347.98H255.734ZM344.934 1466.42C337.329 1466.42 330.48 1465.07 324.387 1462.36C318.345 1459.6 313.553 1455.54 310.012 1450.17C306.522 1444.81 304.777 1438.19 304.777 1430.33C304.777 1423.56 306.027 1417.96 308.527 1413.53C311.027 1409.1 314.439 1405.56 318.762 1402.91C323.085 1400.25 327.954 1398.24 333.371 1396.89C338.84 1395.48 344.491 1394.47 350.324 1393.84C357.355 1393.11 363.059 1392.46 367.434 1391.89C371.809 1391.27 374.986 1390.33 376.965 1389.08C378.996 1387.78 380.012 1385.77 380.012 1383.06V1382.59C380.012 1376.71 378.267 1372.15 374.777 1368.92C371.288 1365.69 366.262 1364.08 359.699 1364.08C352.772 1364.08 347.277 1365.59 343.215 1368.61C339.204 1371.63 336.496 1375.2 335.09 1379.31L308.684 1375.56C310.767 1368.27 314.204 1362.18 318.996 1357.28C323.788 1352.33 329.647 1348.64 336.574 1346.19C343.501 1343.69 351.158 1342.44 359.543 1342.44C365.324 1342.44 371.079 1343.11 376.809 1344.47C382.538 1345.82 387.772 1348.06 392.512 1351.19C397.251 1354.26 401.053 1358.45 403.918 1363.77C406.835 1369.08 408.293 1375.72 408.293 1383.69V1464H381.105V1447.52H380.168C378.449 1450.85 376.027 1453.97 372.902 1456.89C369.829 1459.76 365.949 1462.07 361.262 1463.84C356.626 1465.56 351.184 1466.42 344.934 1466.42ZM352.277 1445.64C357.954 1445.64 362.876 1444.52 367.043 1442.28C371.21 1439.99 374.413 1436.97 376.652 1433.22C378.944 1429.47 380.09 1425.38 380.09 1420.95V1406.81C379.204 1407.54 377.694 1408.22 375.559 1408.84C373.475 1409.47 371.132 1410.02 368.527 1410.48C365.923 1410.95 363.345 1411.37 360.793 1411.73C358.241 1412.1 356.027 1412.41 354.152 1412.67C349.934 1413.24 346.158 1414.18 342.824 1415.48C339.491 1416.79 336.861 1418.61 334.934 1420.95C333.007 1423.24 332.043 1426.21 332.043 1429.86C332.043 1435.07 333.944 1439 337.746 1441.66C341.548 1444.31 346.392 1445.64 352.277 1445.64ZM497.512 1344V1365.87H426.574V1344H497.512ZM444.309 1464V1332.67C444.309 1324.6 445.975 1317.88 449.309 1312.52C452.694 1307.15 457.225 1303.14 462.902 1300.48C468.579 1297.83 474.882 1296.5 481.809 1296.5C486.704 1296.5 491.053 1296.89 494.855 1297.67C498.658 1298.45 501.47 1299.16 503.293 1299.78L497.668 1321.66C496.47 1321.29 494.96 1320.93 493.137 1320.56C491.314 1320.15 489.283 1319.94 487.043 1319.94C481.783 1319.94 478.059 1321.21 475.871 1323.77C473.736 1326.27 472.668 1329.86 472.668 1334.55V1464H444.309ZM568.273 1466.34C556.242 1466.34 545.852 1463.84 537.102 1458.84C528.404 1453.79 521.711 1446.66 517.023 1437.44C512.336 1428.17 509.992 1417.26 509.992 1404.7C509.992 1392.36 512.336 1381.53 517.023 1372.2C521.763 1362.83 528.378 1355.54 536.867 1350.33C545.357 1345.07 555.331 1342.44 566.789 1342.44C574.185 1342.44 581.164 1343.64 587.727 1346.03C594.341 1348.37 600.174 1352.02 605.227 1356.97C610.331 1361.92 614.341 1368.22 617.258 1375.87C620.174 1383.48 621.633 1392.54 621.633 1403.06V1411.73H523.273V1392.67H594.523C594.471 1387.26 593.299 1382.44 591.008 1378.22C588.716 1373.95 585.513 1370.59 581.398 1368.14C577.336 1365.69 572.596 1364.47 567.18 1364.47C561.398 1364.47 556.32 1365.87 551.945 1368.69C547.57 1371.45 544.159 1375.09 541.711 1379.62C539.315 1384.1 538.091 1389.03 538.039 1394.39V1411.03C538.039 1418.01 539.315 1424 541.867 1429C544.419 1433.95 547.987 1437.75 552.57 1440.41C557.154 1443.01 562.518 1444.31 568.664 1444.31C572.779 1444.31 576.503 1443.74 579.836 1442.59C583.169 1441.4 586.06 1439.65 588.508 1437.36C590.956 1435.07 592.805 1432.23 594.055 1428.84L620.461 1431.81C618.794 1438.79 615.617 1444.89 610.93 1450.09C606.294 1455.25 600.357 1459.26 593.117 1462.12C585.878 1464.94 577.596 1466.34 568.273 1466.34ZM733.762 1347.98C733.033 1341.16 729.96 1335.85 724.543 1332.05C719.178 1328.24 712.199 1326.34 703.605 1326.34C697.564 1326.34 692.382 1327.26 688.059 1329.08C683.736 1330.9 680.428 1333.37 678.137 1336.5C675.845 1339.62 674.673 1343.19 674.621 1347.2C674.621 1350.54 675.376 1353.43 676.887 1355.87C678.449 1358.32 680.559 1360.41 683.215 1362.12C685.871 1363.79 688.814 1365.2 692.043 1366.34C695.272 1367.49 698.527 1368.45 701.809 1369.23L716.809 1372.98C722.85 1374.39 728.658 1376.29 734.23 1378.69C739.855 1381.08 744.882 1384.1 749.309 1387.75C753.788 1391.4 757.329 1395.8 759.934 1400.95C762.538 1406.11 763.84 1412.15 763.84 1419.08C763.84 1428.45 761.444 1436.71 756.652 1443.84C751.861 1450.93 744.934 1456.47 735.871 1460.48C726.861 1464.44 715.949 1466.42 703.137 1466.42C690.689 1466.42 679.882 1464.49 670.715 1460.64C661.6 1456.79 654.465 1451.16 649.309 1443.77C644.204 1436.37 641.444 1427.36 641.027 1416.73H669.543C669.96 1422.31 671.678 1426.94 674.699 1430.64C677.72 1434.34 681.652 1437.1 686.496 1438.92C691.392 1440.74 696.861 1441.66 702.902 1441.66C709.204 1441.66 714.725 1440.72 719.465 1438.84C724.257 1436.92 728.007 1434.26 730.715 1430.87C733.423 1427.44 734.803 1423.43 734.855 1418.84C734.803 1414.68 733.579 1411.24 731.184 1408.53C728.788 1405.77 725.428 1403.48 721.105 1401.66C716.835 1399.78 711.835 1398.11 706.105 1396.66L687.902 1391.97C674.725 1388.58 664.309 1383.45 656.652 1376.58C649.048 1369.65 645.246 1360.46 645.246 1349C645.246 1339.57 647.798 1331.32 652.902 1324.23C658.059 1317.15 665.064 1311.66 673.918 1307.75C682.772 1303.79 692.798 1301.81 703.996 1301.81C715.35 1301.81 725.298 1303.79 733.84 1307.75C742.434 1311.66 749.178 1317.1 754.074 1324.08C758.97 1331.01 761.496 1338.97 761.652 1347.98H733.762ZM841.555 1466.34C829.523 1466.34 819.133 1463.84 810.383 1458.84C801.685 1453.79 794.992 1446.66 790.305 1437.44C785.617 1428.17 783.273 1417.26 783.273 1404.7C783.273 1392.36 785.617 1381.53 790.305 1372.2C795.044 1362.83 801.659 1355.54 810.148 1350.33C818.638 1345.07 828.612 1342.44 840.07 1342.44C847.466 1342.44 854.445 1343.64 861.008 1346.03C867.622 1348.37 873.456 1352.02 878.508 1356.97C883.612 1361.92 887.622 1368.22 890.539 1375.87C893.456 1383.48 894.914 1392.54 894.914 1403.06V1411.73H796.555V1392.67H867.805C867.753 1387.26 866.581 1382.44 864.289 1378.22C861.997 1373.95 858.794 1370.59 854.68 1368.14C850.617 1365.69 845.878 1364.47 840.461 1364.47C834.68 1364.47 829.602 1365.87 825.227 1368.69C820.852 1371.45 817.44 1375.09 814.992 1379.62C812.596 1384.1 811.372 1389.03 811.32 1394.39V1411.03C811.32 1418.01 812.596 1424 815.148 1429C817.701 1433.95 821.268 1437.75 825.852 1440.41C830.435 1443.01 835.799 1444.31 841.945 1444.31C846.06 1444.31 849.784 1443.74 853.117 1442.59C856.451 1441.4 859.341 1439.65 861.789 1437.36C864.237 1435.07 866.086 1432.23 867.336 1428.84L893.742 1431.81C892.076 1438.79 888.898 1444.89 884.211 1450.09C879.576 1455.25 873.638 1459.26 866.398 1462.12C859.159 1464.94 850.878 1466.34 841.555 1466.34ZM971.184 1466.34C959.204 1466.34 948.918 1463.71 940.324 1458.45C931.783 1453.19 925.194 1445.93 920.559 1436.66C915.975 1427.33 913.684 1416.6 913.684 1404.47C913.684 1392.28 916.027 1381.53 920.715 1372.2C925.402 1362.83 932.017 1355.54 940.559 1350.33C949.152 1345.07 959.309 1342.44 971.027 1342.44C980.767 1342.44 989.387 1344.23 996.887 1347.83C1004.44 1351.37 1010.45 1356.4 1014.93 1362.91C1019.41 1369.36 1021.96 1376.92 1022.59 1385.56H995.559C994.465 1379.78 991.861 1374.96 987.746 1371.11C983.684 1367.2 978.241 1365.25 971.418 1365.25C965.637 1365.25 960.559 1366.81 956.184 1369.94C951.809 1373.01 948.397 1377.44 945.949 1383.22C943.553 1389 942.355 1395.93 942.355 1404C942.355 1412.18 943.553 1419.21 945.949 1425.09C948.345 1430.93 951.704 1435.43 956.027 1438.61C960.402 1441.73 965.533 1443.3 971.418 1443.3C975.585 1443.3 979.309 1442.52 982.59 1440.95C985.923 1439.34 988.71 1437.02 990.949 1434C993.189 1430.98 994.725 1427.31 995.559 1422.98H1022.59C1021.91 1431.47 1019.41 1439 1015.09 1445.56C1010.77 1452.07 1004.88 1457.18 997.434 1460.87C989.986 1464.52 981.236 1466.34 971.184 1466.34ZM1045.81 1464V1344H1073.23V1364H1074.48C1076.67 1357.07 1080.42 1351.73 1085.73 1347.98C1091.1 1344.18 1097.22 1342.28 1104.09 1342.28C1105.66 1342.28 1107.4 1342.36 1109.33 1342.52C1111.31 1342.62 1112.95 1342.8 1114.25 1343.06V1369.08C1113.05 1368.66 1111.15 1368.3 1108.55 1367.98C1105.99 1367.62 1103.52 1367.44 1101.13 1367.44C1095.97 1367.44 1091.33 1368.56 1087.22 1370.8C1083.16 1372.98 1079.95 1376.03 1077.61 1379.94C1075.27 1383.84 1074.09 1388.35 1074.09 1393.45V1464H1045.81ZM1181.22 1466.34C1169.19 1466.34 1158.8 1463.84 1150.05 1458.84C1141.35 1453.79 1134.66 1446.66 1129.97 1437.44C1125.29 1428.17 1122.94 1417.26 1122.94 1404.7C1122.94 1392.36 1125.29 1381.53 1129.97 1372.2C1134.71 1362.83 1141.33 1355.54 1149.82 1350.33C1158.31 1345.07 1168.28 1342.44 1179.74 1342.44C1187.13 1342.44 1194.11 1343.64 1200.68 1346.03C1207.29 1348.37 1213.12 1352.02 1218.18 1356.97C1223.28 1361.92 1227.29 1368.22 1230.21 1375.87C1233.12 1383.48 1234.58 1392.54 1234.58 1403.06V1411.73H1136.22V1392.67H1207.47C1207.42 1387.26 1206.25 1382.44 1203.96 1378.22C1201.67 1373.95 1198.46 1370.59 1194.35 1368.14C1190.29 1365.69 1185.55 1364.47 1180.13 1364.47C1174.35 1364.47 1169.27 1365.87 1164.89 1368.69C1160.52 1371.45 1157.11 1375.09 1154.66 1379.62C1152.26 1384.1 1151.04 1389.03 1150.99 1394.39V1411.03C1150.99 1418.01 1152.26 1424 1154.82 1429C1157.37 1433.95 1160.94 1437.75 1165.52 1440.41C1170.1 1443.01 1175.47 1444.31 1181.61 1444.31C1185.73 1444.31 1189.45 1443.74 1192.79 1442.59C1196.12 1441.4 1199.01 1439.65 1201.46 1437.36C1203.9 1435.07 1205.75 1432.23 1207 1428.84L1233.41 1431.81C1231.74 1438.79 1228.57 1444.89 1223.88 1450.09C1219.24 1455.25 1213.31 1459.26 1206.07 1462.12C1198.83 1464.94 1190.55 1466.34 1181.22 1466.34ZM1318.43 1344V1365.87H1249.45V1344H1318.43ZM1266.48 1315.25H1294.76V1427.91C1294.76 1431.71 1295.33 1434.63 1296.48 1436.66C1297.67 1438.64 1299.24 1439.99 1301.16 1440.72C1303.09 1441.45 1305.23 1441.81 1307.57 1441.81C1309.34 1441.81 1310.96 1441.68 1312.41 1441.42C1313.92 1441.16 1315.07 1440.93 1315.85 1440.72L1320.62 1462.83C1319.11 1463.35 1316.95 1463.92 1314.13 1464.55C1311.37 1465.17 1307.99 1465.54 1303.98 1465.64C1296.89 1465.85 1290.51 1464.78 1284.84 1462.44C1279.16 1460.04 1274.65 1456.34 1271.32 1451.34C1268.04 1446.34 1266.42 1440.09 1266.48 1432.59V1315.25ZM1435.21 1375.72L1409.43 1378.53C1408.7 1375.93 1407.42 1373.48 1405.6 1371.19C1403.83 1368.9 1401.43 1367.05 1398.41 1365.64C1395.39 1364.23 1391.69 1363.53 1387.32 1363.53C1381.43 1363.53 1376.48 1364.81 1372.47 1367.36C1368.51 1369.91 1366.56 1373.22 1366.61 1377.28C1366.56 1380.77 1367.84 1383.61 1370.44 1385.8C1373.1 1387.98 1377.47 1389.78 1383.57 1391.19L1404.04 1395.56C1415.39 1398.01 1423.83 1401.89 1429.35 1407.2C1434.92 1412.52 1437.73 1419.47 1437.79 1428.06C1437.73 1435.61 1435.52 1442.28 1431.14 1448.06C1426.82 1453.79 1420.81 1458.27 1413.1 1461.5C1405.39 1464.73 1396.54 1466.34 1386.54 1466.34C1371.85 1466.34 1360.02 1463.27 1351.07 1457.12C1342.11 1450.93 1336.77 1442.31 1335.05 1431.27L1362.63 1428.61C1363.88 1434.03 1366.54 1438.11 1370.6 1440.87C1374.66 1443.64 1379.95 1445.02 1386.46 1445.02C1393.18 1445.02 1398.57 1443.64 1402.63 1440.87C1406.74 1438.11 1408.8 1434.7 1408.8 1430.64C1408.8 1427.2 1407.47 1424.36 1404.82 1422.12C1402.21 1419.89 1398.15 1418.17 1392.63 1416.97L1372.16 1412.67C1360.65 1410.28 1352.13 1406.24 1346.61 1400.56C1341.09 1394.83 1338.36 1387.59 1338.41 1378.84C1338.36 1371.45 1340.36 1365.04 1344.43 1359.62C1348.54 1354.16 1354.24 1349.94 1361.54 1346.97C1368.88 1343.95 1377.34 1342.44 1386.93 1342.44C1400.99 1342.44 1412.06 1345.43 1420.13 1351.42C1428.25 1357.41 1433.28 1365.51 1435.21 1375.72Z" fill="#FF5722"/>
</svg>
