<svg width="48" height="48" viewBox="0 0 48 48" fill="none" xmlns="http://www.w3.org/2000/svg">
<path d="M7.74922 39.75C6.78255 39.75 5.94922 39.4 5.24922 38.7C4.54922 38 4.19922 37.1667 4.19922 36.2V11.8C4.19922 10.8333 4.54922 10 5.24922 9.3C5.94922 8.6 6.78255 8.25 7.74922 8.25H40.2492C41.2159 8.25 42.0492 8.6 42.7492 9.3C43.4492 10 43.7992 10.8333 43.7992 11.8V36.2C43.7992 37.1667 43.4492 38 42.7492 38.7C42.0492 39.4 41.2159 39.75 40.2492 39.75H7.74922ZM23.9992 24.85L40.8992 13.85L40.5492 11.15L23.9992 21.9L7.44922 11.15L7.09922 13.85L23.9992 24.85Z" fill="#C4C4C4"/>
</svg>
