<svg width="257" height="512" viewBox="0 0 257 512" fill="none" xmlns="http://www.w3.org/2000/svg">
<path d="M256.029 121.669H253.212V44.6047C253.212 38.7472 252.057 32.9469 249.812 27.5352C247.567 22.1236 244.277 17.2064 240.13 13.0644C235.982 8.92249 231.059 5.63693 225.64 3.39533C220.221 1.15373 214.413 0 208.547 0H45.0512C33.2054 0 21.8448 4.69942 13.4686 13.0644C5.09242 21.4294 0.386719 32.7748 0.386719 44.6047V467.395C0.386719 473.253 1.54199 479.053 3.78659 484.465C6.03119 489.876 9.32116 494.794 13.4686 498.936C17.6161 503.077 22.5399 506.363 27.9588 508.605C33.3778 510.846 39.1858 512 45.0512 512H208.547C220.393 512 231.753 507.3 240.13 498.935C248.506 490.57 253.211 479.225 253.211 467.395V176.526H256.028L256.029 121.669Z" fill="#E6E6E6"/>
<path d="M210.35 11.6006H189.01C189.991 14.0037 190.366 16.611 190.101 19.1927C189.835 21.7745 188.938 24.2514 187.489 26.4054C186.039 28.5594 184.081 30.3242 181.787 31.5445C179.494 32.7647 176.935 33.4029 174.336 33.4028H80.671C78.0724 33.4027 75.5136 32.7643 73.2202 31.544C70.9268 30.3237 68.9691 28.5588 67.5195 26.4048C66.07 24.2509 65.1731 21.774 64.9079 19.1924C64.6427 16.6107 65.0174 14.0036 65.9988 11.6006H46.0659C37.2196 11.6006 28.7357 15.1101 22.4804 21.357C16.2251 27.6039 12.7109 36.0765 12.7109 44.911V467.088C12.7109 475.922 16.2251 484.395 22.4804 490.642C28.7357 496.888 37.2196 500.398 46.0659 500.398H210.35C219.196 500.398 227.68 496.888 233.935 490.642C240.19 484.395 243.705 475.922 243.705 467.088V467.088V44.9103C243.704 36.0759 240.19 27.6035 233.935 21.3567C227.68 15.11 219.196 11.6006 210.35 11.6006V11.6006Z" fill="white"/>
<path d="M107.273 179.774C107.273 176.823 108.05 173.924 109.528 171.369C111.006 168.814 113.132 166.692 115.692 165.218C113.133 163.742 110.231 162.965 107.276 162.965C104.322 162.965 101.419 163.741 98.86 165.216C96.301 166.691 94.176 168.813 92.6986 171.369C91.2212 173.924 90.4434 176.823 90.4434 179.773C90.4434 182.724 91.2212 185.623 92.6986 188.178C94.176 190.733 96.301 192.855 98.86 194.331C101.419 195.806 104.322 196.582 107.276 196.582C110.231 196.582 113.133 195.804 115.692 194.329C113.132 192.855 111.007 190.734 109.529 188.179C108.051 185.624 107.273 182.725 107.273 179.774V179.774Z" fill="#CCCCCC"/>
<path d="M128.433 179.774C128.433 176.823 129.21 173.924 130.688 171.369C132.166 168.814 134.292 166.692 136.852 165.218C134.294 163.742 131.391 162.965 128.436 162.965C125.482 162.965 122.579 163.741 120.02 165.216C117.461 166.691 115.336 168.813 113.859 171.369C112.381 173.924 111.604 176.823 111.604 179.773C111.604 182.724 112.381 185.623 113.859 188.178C115.336 190.733 117.461 192.855 120.02 194.331C122.579 195.806 125.482 196.582 128.436 196.582C131.391 196.582 134.294 195.804 136.852 194.329C134.293 192.855 132.167 190.734 130.689 188.179C129.211 185.624 128.433 182.725 128.433 179.774V179.774Z" fill="#CCCCCC"/>
<path d="M149.11 196.582C158.406 196.582 165.941 189.056 165.941 179.773C165.941 170.49 158.406 162.965 149.11 162.965C139.815 162.965 132.279 170.49 132.279 179.773C132.279 189.056 139.815 196.582 149.11 196.582Z" fill="#2F2F2F"/>
<path d="M177.24 232.273H79.1455C78.2116 232.272 77.3163 231.901 76.656 231.241C75.9956 230.582 75.6241 229.687 75.623 228.755V130.791C75.6241 129.859 75.9956 128.964 76.656 128.305C77.3163 127.645 78.2116 127.275 79.1455 127.273H177.24C178.174 127.275 179.07 127.645 179.73 128.305C180.39 128.964 180.762 129.859 180.763 130.791V228.755C180.762 229.687 180.39 230.582 179.73 231.241C179.07 231.901 178.174 232.272 177.24 232.273V232.273ZM79.1455 128.681C78.5852 128.682 78.048 128.904 77.6518 129.3C77.2555 129.696 77.0327 130.232 77.0322 130.792V228.756C77.0327 229.315 77.2555 229.852 77.6518 230.247C78.048 230.643 78.5852 230.865 79.1455 230.866H177.24C177.801 230.865 178.338 230.643 178.734 230.247C179.13 229.852 179.353 229.315 179.354 228.756V130.792C179.353 130.232 179.13 129.696 178.734 129.3C178.338 128.904 177.801 128.682 177.24 128.681H79.1455Z" fill="#CCCCCC"/>
<path d="M199.143 307.366H48.6953V308.773H199.143V307.366Z" fill="#CCCCCC"/>
<path d="M53.4465 298.581C56.0706 298.581 58.1978 296.457 58.1978 293.836C58.1978 291.216 56.0706 289.091 53.4465 289.091C50.8225 289.091 48.6953 291.216 48.6953 293.836C48.6953 296.457 50.8225 298.581 53.4465 298.581Z" fill="#2F2F2F"/>
<path d="M199.143 354.812H48.6953V356.22H199.143V354.812Z" fill="#CCCCCC"/>
<path d="M53.4465 346.028C56.0706 346.028 58.1978 343.903 58.1978 341.283C58.1978 338.662 56.0706 336.538 53.4465 336.538C50.8225 336.538 48.6953 338.662 48.6953 341.283C48.6953 343.903 50.8225 346.028 53.4465 346.028Z" fill="#2F2F2F"/>
<path d="M196.389 408.842H148.844C148.023 408.841 147.235 408.515 146.654 407.935C146.074 407.355 145.747 406.569 145.746 405.748V389.106C145.747 388.286 146.074 387.5 146.654 386.92C147.235 386.34 148.023 386.014 148.844 386.013H196.389C197.211 386.014 197.998 386.34 198.579 386.92C199.16 387.5 199.486 388.286 199.487 389.106V405.748C199.486 406.569 199.16 407.355 198.579 407.935C197.998 408.515 197.211 408.841 196.389 408.842V408.842Z" fill="#2F2F2F"/>
<path d="M68.9446 298.581C71.5686 298.581 73.6958 296.457 73.6958 293.836C73.6958 291.216 71.5686 289.091 68.9446 289.091C66.3206 289.091 64.1934 291.216 64.1934 293.836C64.1934 296.457 66.3206 298.581 68.9446 298.581Z" fill="#2F2F2F"/>
<path d="M84.4426 298.581C87.0667 298.581 89.1939 296.457 89.1939 293.836C89.1939 291.216 87.0667 289.091 84.4426 289.091C81.8186 289.091 79.6914 291.216 79.6914 293.836C79.6914 296.457 81.8186 298.581 84.4426 298.581Z" fill="#2F2F2F"/>
<path d="M68.9446 346.028C71.5686 346.028 73.6958 343.903 73.6958 341.283C73.6958 338.662 71.5686 336.538 68.9446 336.538C66.3206 336.538 64.1934 338.662 64.1934 341.283C64.1934 343.903 66.3206 346.028 68.9446 346.028Z" fill="#2F2F2F"/>
<path d="M84.4426 346.028C87.0667 346.028 89.1939 343.903 89.1939 341.283C89.1939 338.662 87.0667 336.538 84.4426 336.538C81.8186 336.538 79.6914 338.662 79.6914 341.283C79.6914 343.903 81.8186 346.028 84.4426 346.028Z" fill="#2F2F2F"/>
</svg>
