<svg width="48" height="48" viewBox="0 0 48 48" fill="none" xmlns="http://www.w3.org/2000/svg">
<path d="M20 8C17.8783 8 15.8434 8.84285 14.3431 10.3431C12.8429 11.8434 12 13.8783 12 16C12 18.1217 12.8429 20.1566 14.3431 21.6569C15.8434 23.1571 17.8783 24 20 24C22.1217 24 24.1566 23.1571 25.6569 21.6569C27.1571 20.1566 28 18.1217 28 16C28 13.8783 27.1571 11.8434 25.6569 10.3431C24.1566 8.84285 22.1217 8 20 8ZM34 24C33.74 24 33.52 24.18 33.48 24.42L33.1 27.06C32.5 27.32 31.92 27.64 31.4 28L28.92 27C28.7 27 28.44 27 28.3 27.26L26.3 30.72C26.18 30.94 26.22 31.2 26.42 31.36L28.54 33C28.5 33.34 28.48 33.66 28.48 34C28.48 34.34 28.5 34.66 28.54 35L26.42 36.64C26.24 36.8 26.18 37.06 26.3 37.28L28.3 40.74C28.42 41 28.68 41 28.92 41L31.4 40C31.92 40.36 32.48 40.7 33.1 40.94L33.48 43.58C33.52 43.82 33.72 44 34 44H38C38.22 44 38.44 43.82 38.48 43.58L38.86 40.94C39.46 40.68 40 40.36 40.54 40L43 41C43.26 41 43.52 41 43.66 40.74L45.66 37.28C45.78 37.06 45.72 36.8 45.54 36.64L43.4 35C43.44 34.66 43.48 34.34 43.48 34C43.48 33.66 43.46 33.34 43.4 33L45.52 31.36C45.7 31.2 45.76 30.94 45.64 30.72L43.64 27.26C43.52 27 43.26 27 43 27L40.54 28C40 27.64 39.46 27.3 38.84 27.06L38.46 24.42C38.44 24.18 38.22 24 38 24H34ZM20 28C11.16 28 4 31.58 4 36V40H23.36C22.4674 38.1256 22.0028 36.0761 22 34C22.0041 31.9906 22.4406 30.0057 23.28 28.18C22.22 28.06 21.12 28 20 28ZM36 31C37.66 31 39 32.34 39 34C39 35.66 37.66 37 36 37C34.32 37 33 35.66 33 34C33 32.34 34.34 31 36 31Z" fill="#C4C4C4"/>
</svg>
