<svg width="40" height="34" viewBox="0 0 40 34" fill="none" xmlns="http://www.w3.org/2000/svg">
<path d="M28 14.14C28 11.92 27.1 9.92 25.66 8.48L28.48 5.66C30.66 7.84 32 10.84 32 14.14C30.56 14.14 29.2 14.4 27.92 14.86C27.94 14.62 28 14.38 28 14.14ZM8.68 2.82L5.86 0C2.24 3.62 0 8.62 0 14.14C0 19.66 2.24 24.66 5.86 28.28L8.68 25.46C5.78 22.58 4 18.58 4 14.14C4 9.72 5.78 5.7 8.68 2.82ZM34.14 0L31.32 2.82C34.22 5.7 36 9.72 36 14.14C36 14.38 36 14.6 36 14.82C37.36 15.32 38.66 16.06 39.76 17C39.9 16.06 40 15.14 40 14.14C40 8.62 37.76 3.62 34.14 0ZM20 10.14C17.8 10.14 16 11.94 16 14.14C16 16.34 17.8 18.14 20 18.14C22.2 18.14 24 16.34 24 14.14C24 11.94 22.2 10.14 20 10.14ZM11.52 5.66C9.34 7.84 8 10.84 8 14.14C8 17.44 9.34 20.44 11.52 22.62L14.34 19.8C12.9 18.36 12 16.36 12 14.14C12 11.92 12.9 9.92 14.34 8.48L11.52 5.66ZM36.24 19.06L32 23.32L27.76 19.08L24.94 21.9L29.18 26.14L24.94 30.38L27.76 33.2L32 28.96L36.24 33.2L39.06 30.38L34.82 26.14L39.06 21.9L36.24 19.06Z" fill="#FF5722"/>
</svg>
