<svg width="48" height="48" viewBox="0 0 48 48" fill="none" xmlns="http://www.w3.org/2000/svg">
<path d="M39.8004 41.7496L26.7504 28.7496C25.7171 29.6163 24.5087 30.2829 23.1254 30.7496C21.7421 31.2163 20.3504 31.4496 18.9504 31.4496C15.3171 31.4496 12.2754 30.2246 9.82539 27.7746C7.37539 25.3246 6.15039 22.3163 6.15039 18.7496C6.15039 15.2163 7.37539 12.2246 9.82539 9.77461C12.2754 7.32461 15.2671 6.09961 18.8004 6.09961C22.3671 6.09961 25.3837 7.32461 27.8504 9.77461C30.3171 12.2246 31.5504 15.2163 31.5504 18.7496C31.5504 20.1829 31.3171 21.5746 30.8504 22.9246C30.3837 24.2746 29.7004 25.4996 28.8004 26.5996L41.9004 39.6496L39.8004 41.7496ZM18.8504 28.5496C21.5837 28.5496 23.8921 27.6079 25.7754 25.7246C27.6587 23.8413 28.6004 21.5163 28.6004 18.7496C28.6004 16.0163 27.6671 13.7079 25.8004 11.8246C23.9337 9.94128 21.6171 8.99961 18.8504 8.99961C16.0837 8.99961 13.7671 9.94128 11.9004 11.8246C10.0337 13.7079 9.10039 16.0163 9.10039 18.7496C9.10039 21.5163 10.0337 23.8413 11.9004 25.7246C13.7671 27.6079 16.0837 28.5496 18.8504 28.5496Z" fill="#C4C4C4"/>
</svg>
