<svg width="282" height="283" viewBox="0 0 282 283" fill="none" xmlns="http://www.w3.org/2000/svg">
<path d="M141.002 281.513C218.322 281.513 281.002 218.833 281.002 141.513C281.002 64.1933 218.322 1.51318 141.002 1.51318C63.6821 1.51318 1.00195 64.1933 1.00195 141.513C1.00195 218.833 63.6821 281.513 141.002 281.513Z" fill="#2F2E41"/>
<path opacity="0.2" d="M134.38 191.062C127.966 197.476 119.268 201.079 110.198 201.079C101.128 201.079 92.429 197.476 86.0155 191.062V191.062C80.5041 185.548 77.0414 178.318 76.2009 170.567C75.3604 162.817 77.1926 155.012 81.394 148.445L73.8701 156.121C67.4566 162.535 63.8535 171.234 63.8535 180.304C63.8535 189.374 67.4566 198.072 73.8701 204.486V204.486C80.2836 210.899 88.9823 214.502 98.0524 214.502C107.122 214.502 115.821 210.899 122.235 204.486L138.908 187.173L139.162 186.097L134.38 191.062Z" fill="black"/>
<path opacity="0.2" d="M150.264 84.1058C157.76 79.0001 166.978 77.0814 175.889 78.7719C184.8 80.4624 192.675 85.6237 197.781 93.1202V93.1203C202.168 99.5644 204.222 107.314 203.604 115.085C202.985 122.856 199.73 130.183 194.378 135.851L203.201 129.712C210.698 124.606 215.859 116.732 217.549 107.821C219.24 98.9095 217.321 89.6918 212.215 82.1953V82.1952C207.11 74.6987 199.235 69.5375 190.324 67.847C181.413 66.1565 172.195 68.0751 164.698 73.1809L145.09 87.0824L144.641 88.0925L150.264 84.1058Z" fill="black"/>
<path d="M98.0528 218.781C90.6955 218.781 83.5033 216.6 77.386 212.512C71.2686 208.425 66.5007 202.615 63.6851 195.818C60.8696 189.021 60.133 181.541 61.5683 174.325C63.0037 167.109 66.5466 160.481 71.749 155.279L103.317 123.071C106.771 119.612 110.872 116.868 115.386 114.995C119.9 113.122 124.739 112.157 129.627 112.155C134.515 112.153 139.355 113.114 143.87 114.984C148.386 116.853 152.489 119.594 155.945 123.05C156.508 123.613 156.824 124.376 156.824 125.171C156.824 125.967 156.508 126.73 155.945 127.292C155.383 127.855 154.62 128.171 153.824 128.171C153.029 128.171 152.266 127.855 151.703 127.292C145.852 121.442 137.917 118.155 129.642 118.155C121.368 118.155 113.432 121.442 107.581 127.293C102.945 143.639 92.926 154.855 76.013 159.5C73.111 162.395 70.8079 165.833 69.2354 169.619C67.6629 173.404 66.8517 177.462 66.8482 181.561C66.8448 185.661 67.6491 189.72 69.2152 193.508C70.7814 197.296 73.0785 200.739 75.9756 203.638C78.8727 206.538 82.3128 208.839 86.0994 210.409C89.8859 211.978 93.9447 212.787 98.0437 212.787C102.143 212.787 106.202 211.98 109.989 210.411C113.776 208.842 117.216 206.543 120.114 203.644C119.43 196.938 121.39 190.634 136.748 186.371C137.021 186.086 137.347 185.858 137.709 185.699C138.07 185.541 138.459 185.455 138.854 185.447C139.248 185.439 139.641 185.509 140.008 185.653C140.375 185.797 140.711 186.012 140.995 186.286C141.279 186.559 141.507 186.886 141.664 187.248C141.822 187.61 141.907 187.999 141.913 188.394C141.92 188.789 141.849 189.181 141.704 189.548C141.559 189.915 141.343 190.25 141.069 190.533L124.396 207.846C120.947 211.321 116.843 214.078 112.321 215.955C107.799 217.832 102.949 218.793 98.0528 218.781Z" fill="white"/>
<path d="M149.305 173.219C144.418 173.233 139.577 172.277 135.062 170.406C130.547 168.536 126.448 165.789 123.002 162.323C122.439 161.761 122.123 160.998 122.123 160.202C122.123 159.406 122.439 158.643 123.002 158.081C123.565 157.518 124.328 157.202 125.123 157.202C125.919 157.202 126.682 157.519 127.245 158.081C130.142 160.978 133.581 163.277 137.366 164.845C141.151 166.412 145.208 167.219 149.305 167.219C153.402 167.219 157.459 166.412 161.245 164.845C165.03 163.277 168.469 160.979 171.366 158.081C175.364 133.997 191.664 130.598 205.833 123.616C208.73 120.718 211.028 117.279 212.596 113.494C214.164 109.709 214.971 105.652 214.971 101.554C214.971 97.4573 214.164 93.4002 212.596 89.615C211.028 85.8298 208.73 82.3904 205.833 79.4933C202.935 76.5962 199.496 74.2981 195.711 72.7302C191.926 71.1623 187.868 70.3554 183.771 70.3554C179.674 70.3554 175.617 71.1624 171.832 72.7304C168.047 74.2983 164.607 76.5964 161.71 79.4935C157.769 90.8646 153.899 102.37 142.16 99.0433C141.882 99.3219 141.551 99.5428 141.187 99.6936C140.823 99.8444 140.433 99.922 140.039 99.922C139.244 99.922 138.481 99.606 137.918 99.0434C137.356 98.4808 137.039 97.7178 137.039 96.9222C137.039 96.1267 137.355 95.3636 137.918 94.8011L157.468 75.2513C160.922 71.7971 165.023 69.057 169.536 67.1876C174.049 65.3182 178.886 64.356 183.771 64.356C188.656 64.3559 193.493 65.3181 198.006 67.1875C202.52 69.0569 206.62 71.7969 210.075 75.2511C213.529 78.7052 216.269 82.806 218.138 87.3191C220.008 91.8322 220.97 96.6694 220.97 101.554C220.97 106.439 220.008 111.276 218.138 115.79C216.269 120.303 213.529 124.404 210.075 127.858L175.608 162.324C172.162 165.789 168.063 168.536 163.548 170.406C159.033 172.277 154.192 173.233 149.305 173.219Z" fill="white"/>
<path d="M262.64 70.2652C256.76 60.2794 249.685 51.0478 241.57 42.775C239.76 40.9351 237.89 39.1348 235.98 37.3848C234.92 36.4151 233.85 35.4649 232.76 34.5347C230.69 32.7549 228.56 31.0347 226.39 29.3751C201.876 10.6241 171.863 0.480341 141 0.515226C63.2598 0.515226 1.24078e-05 63.7652 1.24078e-05 141.515C-0.00358756 150.088 0.776184 158.644 2.3296 167.075C2.33209 167.122 2.33895 167.169 2.35011 167.215C3.06011 171.085 3.93995 174.905 4.95997 178.655C12.1856 205.124 26.9772 228.909 47.5216 247.095C68.066 265.281 93.4703 277.078 120.62 281.038C147.77 284.999 175.486 280.952 200.37 269.393C225.253 257.834 246.224 239.266 260.71 215.965C262.66 212.825 264.493 209.605 266.21 206.305C277.16 185.175 282.576 161.615 281.952 137.825C281.327 114.035 274.683 90.7913 262.64 70.2652ZM141 280.515C122.744 280.521 104.667 276.93 87.7996 269.947C70.9325 262.964 55.6068 252.725 42.6982 239.817C29.7896 226.908 19.5512 211.583 12.568 194.715C5.58479 177.848 1.99375 159.771 2.00001 141.515C2.00001 64.8648 64.3599 2.51522 141 2.51522C159.547 2.52574 177.904 6.24904 194.989 13.4657C212.074 20.6823 227.542 31.2462 240.48 44.5347C243.854 47.9793 247.039 51.6048 250.02 55.3951C252.971 59.104 255.725 62.9659 258.27 66.9649C268.878 83.63 275.81 102.366 278.604 121.922C281.397 141.479 279.988 161.406 274.47 180.375C273.24 184.615 271.8 188.765 270.18 192.835C268.55 196.915 266.74 200.915 264.74 204.795C253.044 227.552 235.314 246.654 213.489 260.009C191.665 273.364 166.587 280.458 141 280.515Z" fill="#3F3D56"/>
<path d="M92.3594 145.025C94.0162 145.025 95.3594 143.682 95.3594 142.025C95.3594 140.368 94.0162 139.025 92.3594 139.025C90.7025 139.025 89.3594 140.368 89.3594 142.025C89.3594 143.682 90.7025 145.025 92.3594 145.025Z" fill="#2F2E41"/>
<path d="M187.359 143.025C189.016 143.025 190.359 141.682 190.359 140.025C190.359 138.368 189.016 137.025 187.359 137.025C185.703 137.025 184.359 138.368 184.359 140.025C184.359 141.682 185.703 143.025 187.359 143.025Z" fill="#2F2E41"/>
</svg>
