<svg width="48" height="48" viewBox="0 0 48 48" fill="none" xmlns="http://www.w3.org/2000/svg">
<path d="M23.9992 31.4C26.3326 31.4 28.3159 30.575 29.9492 28.925C31.5826 27.275 32.3992 25.3 32.3992 23C32.3992 20.6667 31.5742 18.6833 29.9242 17.05C28.2742 15.4167 26.2992 14.6 23.9992 14.6C21.6659 14.6 19.6826 15.425 18.0492 17.075C16.4159 18.725 15.5992 20.7 15.5992 23C15.5992 25.3333 16.4242 27.3167 18.0742 28.95C19.7242 30.5833 21.6992 31.4 23.9992 31.4ZM23.9992 28.6C22.4326 28.6 21.1076 28.05 20.0242 26.95C18.9409 25.85 18.3992 24.5333 18.3992 23C18.3992 21.4333 18.9492 20.1083 20.0492 19.025C21.1492 17.9417 22.4659 17.4 23.9992 17.4C25.5659 17.4 26.8909 17.95 27.9742 19.05C29.0576 20.15 29.5992 21.4667 29.5992 23C29.5992 24.5667 29.0492 25.8917 27.9492 26.975C26.8492 28.0583 25.5326 28.6 23.9992 28.6V28.6ZM23.9992 37.75C19.1992 37.75 14.8409 36.4 10.9242 33.7C7.00755 31 4.09922 27.4333 2.19922 23C4.09922 18.5667 7.00755 15 10.9242 12.3C14.8409 9.6 19.1992 8.25 23.9992 8.25C28.7992 8.25 33.1576 9.6 37.0742 12.3C40.9909 15 43.8992 18.5667 45.7992 23C43.8992 27.4333 40.9909 31 37.0742 33.7C33.1576 36.4 28.7992 37.75 23.9992 37.75Z" fill="#C4C4C4"/>
</svg>
