<svg width="48" height="48" viewBox="0 0 48 48" fill="none" xmlns="http://www.w3.org/2000/svg">
<path d="M24 23.0502C21.9 23.0502 20.175 22.3835 18.825 21.0502C17.475 19.7169 16.8 17.9835 16.8 15.8502C16.8 13.7502 17.475 12.0335 18.825 10.7002C20.175 9.36686 21.9 8.7002 24 8.7002C26.1 8.7002 27.825 9.36686 29.175 10.7002C30.525 12.0335 31.2 13.7502 31.2 15.8502C31.2 17.9835 30.525 19.7169 29.175 21.0502C27.825 22.3835 26.1 23.0502 24 23.0502ZM8.25 40.1002V35.5502C8.25 34.3835 8.55 33.3669 9.15 32.5002C9.75 31.6335 10.5333 30.9502 11.5 30.4502C13.7 29.4502 15.825 28.7085 17.875 28.2252C19.925 27.7419 21.9667 27.5002 24 27.5002C26.0333 27.5002 28.075 27.7502 30.125 28.2502C32.175 28.7502 34.2833 29.4835 36.45 30.4502C37.45 30.9502 38.25 31.6335 38.85 32.5002C39.45 33.3669 39.75 34.3835 39.75 35.5502V40.1002H8.25Z" fill="#C4C4C4"/>
</svg>
