<svg width="40" height="32" viewBox="0 0 40 32" fill="none" xmlns="http://www.w3.org/2000/svg">
<path d="M3.74922 31.75C2.78255 31.75 1.94922 31.4 1.24922 30.7C0.549219 30 0.199219 29.1667 0.199219 28.2V3.8C0.199219 2.83333 0.549219 2 1.24922 1.3C1.94922 0.6 2.78255 0.25 3.74922 0.25H36.2492C37.2159 0.25 38.0492 0.6 38.7492 1.3C39.4492 2 39.7992 2.83333 39.7992 3.8V28.2C39.7992 29.1667 39.4492 30 38.7492 30.7C38.0492 31.4 37.2159 31.75 36.2492 31.75H3.74922ZM19.9992 16.85L36.8992 5.85L36.5492 3.15L19.9992 13.9L3.44922 3.15L3.09922 5.85L19.9992 16.85Z" fill="#C4C4C4"/>
</svg>
